<?xml version="1.0" encoding="UTF-8" standalone="no"?>
<svg
   xmlns:dc="http://purl.org/dc/elements/1.1/"
   xmlns:cc="http://creativecommons.org/ns#"
   xmlns:rdf="http://www.w3.org/1999/02/22-rdf-syntax-ns#"
   xmlns:svg="http://www.w3.org/2000/svg"
   xmlns="http://www.w3.org/2000/svg"
   viewBox="0 0 1093.4399 642.32959"
   height="642.32959"
   width="1093.4399"
   xml:space="preserve"
   id="svg2"
   version="1.1"><metadata
     id="metadata8"><rdf:RDF><cc:Work
         rdf:about=""><dc:format>image/svg+xml</dc:format><dc:type
           rdf:resource="http://purl.org/dc/dcmitype/StillImage" /></cc:Work></rdf:RDF></metadata><defs
     id="defs6"><clipPath
       id="clipPath22"
       clipPathUnits="userSpaceOnUse"><path
         id="path20"
         d="M 80.059366,71.707188 H 812.88 V 474.54719 H 80.059366 Z" /></clipPath><clipPath
       id="clipPath44"
       clipPathUnits="userSpaceOnUse"><path
         id="path42"
         d="M 80.059366,71.707188 H 812.88 V 474.54719 H 80.059366 Z" /></clipPath><clipPath
       id="clipPath66"
       clipPathUnits="userSpaceOnUse"><path
         id="path64"
         d="M 80.059366,71.707188 H 812.88 V 474.54719 H 80.059366 Z" /></clipPath><clipPath
       id="clipPath88"
       clipPathUnits="userSpaceOnUse"><path
         id="path86"
         d="M 80.059366,71.707188 H 812.88 V 474.54719 H 80.059366 Z" /></clipPath><clipPath
       id="clipPath106"
       clipPathUnits="userSpaceOnUse"><path
         id="path104"
         d="M 80.059366,71.707188 H 812.88 V 474.54719 H 80.059366 Z" /></clipPath><clipPath
       id="clipPath124"
       clipPathUnits="userSpaceOnUse"><path
         id="path122"
         d="M 80.059366,71.707188 H 812.88 V 474.54719 H 80.059366 Z" /></clipPath><clipPath
       id="clipPath142"
       clipPathUnits="userSpaceOnUse"><path
         id="path140"
         d="M 80.059366,71.707188 H 812.88 V 474.54719 H 80.059366 Z" /></clipPath><clipPath
       id="clipPath160"
       clipPathUnits="userSpaceOnUse"><path
         id="path158"
         d="M 80.059366,71.707188 H 812.88 V 474.54719 H 80.059366 Z" /></clipPath><clipPath
       id="clipPath202"
       clipPathUnits="userSpaceOnUse"><path
         id="path200"
         d="M 80.059366,71.707188 H 812.88 V 474.54719 H 80.059366 Z" /></clipPath><clipPath
       id="clipPath224"
       clipPathUnits="userSpaceOnUse"><path
         id="path222"
         d="M 80.059366,71.707188 H 812.88 V 474.54719 H 80.059366 Z" /></clipPath><clipPath
       id="clipPath246"
       clipPathUnits="userSpaceOnUse"><path
         id="path244"
         d="M 80.059366,71.707188 H 812.88 V 474.54719 H 80.059366 Z" /></clipPath><clipPath
       id="clipPath264"
       clipPathUnits="userSpaceOnUse"><path
         id="path262"
         d="M 80.059366,71.707188 H 812.88 V 474.54719 H 80.059366 Z" /></clipPath><clipPath
       id="clipPath306"
       clipPathUnits="userSpaceOnUse"><path
         id="path304"
         d="M 80.059366,71.707188 H 812.88 V 474.54719 H 80.059366 Z" /></clipPath><clipPath
       id="clipPath316"
       clipPathUnits="userSpaceOnUse"><path
         id="path314"
         d="M 80.059366,71.707188 H 812.88 V 474.54719 H 80.059366 Z" /></clipPath></defs><g
     transform="matrix(1.3333333,0,0,-1.3333333,0,642.32958)"
     id="g10"><path
       id="path12"
       style="fill:#ffffff;fill-opacity:1;fill-rule:nonzero;stroke:none"
       d="M 0,0 H 820.08 V 481.74719 H 0 Z" /><path
       id="path14"
       style="fill:#ffffff;fill-opacity:1;fill-rule:nonzero;stroke:none"
       d="M 80.059366,71.707188 H 812.88 V 474.54719 H 80.059366 Z" /><g
       id="g16"><g
         clip-path="url(#clipPath22)"
         id="g18"><path
           id="path24"
           style="fill:none;stroke:#b0b0b0;stroke-width:0.80000001;stroke-linecap:butt;stroke-linejoin:round;stroke-miterlimit:10;stroke-dasharray:2.96, 1.28;stroke-dashoffset:0;stroke-opacity:0.3"
           d="M 130.89517,71.707188 V 474.54719" /></g></g><g
       id="g26"><path
         id="path28"
         style="fill:#000000;fill-opacity:1;fill-rule:nonzero;stroke:#000000;stroke-width:0.80000001;stroke-linecap:butt;stroke-linejoin:round;stroke-miterlimit:10;stroke-dasharray:none;stroke-opacity:1"
         d="m 130.89517,71.707188 v -3.5" /><text
         id="text32"
         style="font-style:italic;font-variant:normal;font-weight:normal;font-size:26.89912796px;font-family:'Computer Modern';-inkscape-font-specification:CMSY10;writing-mode:lr-tb;fill:#000000;fill-opacity:1;fill-rule:nonzero;stroke:none"
         transform="matrix(1,0,0,-1,114.26615,46.027238)"><tspan
           id="tspan30"
           y="0"
           x="0">−</tspan></text>
<text
         id="text36"
         style="font-variant:normal;font-weight:normal;font-size:26.89912796px;font-family:'Computer Modern';-inkscape-font-specification:CMR17;writing-mode:lr-tb;fill:#000000;fill-opacity:1;fill-rule:nonzero;stroke:none"
         transform="matrix(1,0,0,-1,135.18776,46.027238)"><tspan
           id="tspan34"
           y="0"
           x="0">6</tspan></text>
</g><g
       id="g38"><g
         clip-path="url(#clipPath44)"
         id="g40"><path
           id="path46"
           style="fill:none;stroke:#b0b0b0;stroke-width:0.80000001;stroke-linecap:butt;stroke-linejoin:round;stroke-miterlimit:10;stroke-dasharray:2.96, 1.28;stroke-dashoffset:0;stroke-opacity:0.3"
           d="M 216.851,71.707188 V 474.54719" /></g></g><g
       id="g48"><path
         id="path50"
         style="fill:#000000;fill-opacity:1;fill-rule:nonzero;stroke:#000000;stroke-width:0.80000001;stroke-linecap:butt;stroke-linejoin:round;stroke-miterlimit:10;stroke-dasharray:none;stroke-opacity:1"
         d="m 216.851,71.707188 v -3.5" /><text
         id="text54"
         style="font-style:italic;font-variant:normal;font-weight:normal;font-size:26.89912796px;font-family:'Computer Modern';-inkscape-font-specification:CMSY10;writing-mode:lr-tb;fill:#000000;fill-opacity:1;fill-rule:nonzero;stroke:none"
         transform="matrix(1,0,0,-1,200.22198,46.027238)"><tspan
           id="tspan52"
           y="0"
           x="0">−</tspan></text>
<text
         id="text58"
         style="font-variant:normal;font-weight:normal;font-size:26.89912796px;font-family:'Computer Modern';-inkscape-font-specification:CMR17;writing-mode:lr-tb;fill:#000000;fill-opacity:1;fill-rule:nonzero;stroke:none"
         transform="matrix(1,0,0,-1,221.14359,46.027238)"><tspan
           id="tspan56"
           y="0"
           x="0">4</tspan></text>
</g><g
       id="g60"><g
         clip-path="url(#clipPath66)"
         id="g62"><path
           id="path68"
           style="fill:none;stroke:#b0b0b0;stroke-width:0.80000001;stroke-linecap:butt;stroke-linejoin:round;stroke-miterlimit:10;stroke-dasharray:2.96, 1.28;stroke-dashoffset:0;stroke-opacity:0.3"
           d="M 302.80683,71.707188 V 474.54719" /></g></g><g
       id="g70"><path
         id="path72"
         style="fill:#000000;fill-opacity:1;fill-rule:nonzero;stroke:#000000;stroke-width:0.80000001;stroke-linecap:butt;stroke-linejoin:round;stroke-miterlimit:10;stroke-dasharray:none;stroke-opacity:1"
         d="m 302.80683,71.707188 v -3.5" /><text
         id="text76"
         style="font-style:italic;font-variant:normal;font-weight:normal;font-size:26.89912796px;font-family:'Computer Modern';-inkscape-font-specification:CMSY10;writing-mode:lr-tb;fill:#000000;fill-opacity:1;fill-rule:nonzero;stroke:none"
         transform="matrix(1,0,0,-1,286.17782,46.027238)"><tspan
           id="tspan74"
           y="0"
           x="0">−</tspan></text>
<text
         id="text80"
         style="font-variant:normal;font-weight:normal;font-size:26.89912796px;font-family:'Computer Modern';-inkscape-font-specification:CMR17;writing-mode:lr-tb;fill:#000000;fill-opacity:1;fill-rule:nonzero;stroke:none"
         transform="matrix(1,0,0,-1,307.09942,46.027238)"><tspan
           id="tspan78"
           y="0"
           x="0">2</tspan></text>
</g><g
       id="g82"><g
         clip-path="url(#clipPath88)"
         id="g84"><path
           id="path90"
           style="fill:none;stroke:#b0b0b0;stroke-width:0.80000001;stroke-linecap:butt;stroke-linejoin:round;stroke-miterlimit:10;stroke-dasharray:2.96, 1.28;stroke-dashoffset:0;stroke-opacity:0.3"
           d="M 388.76266,71.707188 V 474.54719" /></g></g><g
       id="g92"><path
         id="path94"
         style="fill:#000000;fill-opacity:1;fill-rule:nonzero;stroke:#000000;stroke-width:0.80000001;stroke-linecap:butt;stroke-linejoin:round;stroke-miterlimit:10;stroke-dasharray:none;stroke-opacity:1"
         d="m 388.76266,71.707188 v -3.5" /><text
         id="text98"
         style="font-variant:normal;font-weight:normal;font-size:26.89912796px;font-family:'Computer Modern';-inkscape-font-specification:CMR17;writing-mode:lr-tb;fill:#000000;fill-opacity:1;fill-rule:nonzero;stroke:none"
         transform="matrix(1,0,0,-1,382.59445,46.027238)"><tspan
           id="tspan96"
           y="0"
           x="0">0</tspan></text>
</g><g
       id="g100"><g
         clip-path="url(#clipPath106)"
         id="g102"><path
           id="path108"
           style="fill:none;stroke:#b0b0b0;stroke-width:0.80000001;stroke-linecap:butt;stroke-linejoin:round;stroke-miterlimit:10;stroke-dasharray:2.96, 1.28;stroke-dashoffset:0;stroke-opacity:0.3"
           d="M 474.7185,71.707188 V 474.54719" /></g></g><g
       id="g110"><path
         id="path112"
         style="fill:#000000;fill-opacity:1;fill-rule:nonzero;stroke:#000000;stroke-width:0.80000001;stroke-linecap:butt;stroke-linejoin:round;stroke-miterlimit:10;stroke-dasharray:none;stroke-opacity:1"
         d="m 474.7185,71.707188 v -3.5" /><text
         id="text116"
         style="font-variant:normal;font-weight:normal;font-size:26.89912796px;font-family:'Computer Modern';-inkscape-font-specification:CMR17;writing-mode:lr-tb;fill:#000000;fill-opacity:1;fill-rule:nonzero;stroke:none"
         transform="matrix(1,0,0,-1,468.55028,46.027238)"><tspan
           id="tspan114"
           y="0"
           x="0">2</tspan></text>
</g><g
       id="g118"><g
         clip-path="url(#clipPath124)"
         id="g120"><path
           id="path126"
           style="fill:none;stroke:#b0b0b0;stroke-width:0.80000001;stroke-linecap:butt;stroke-linejoin:round;stroke-miterlimit:10;stroke-dasharray:2.96, 1.28;stroke-dashoffset:0;stroke-opacity:0.3"
           d="M 560.67433,71.707188 V 474.54719" /></g></g><g
       id="g128"><path
         id="path130"
         style="fill:#000000;fill-opacity:1;fill-rule:nonzero;stroke:#000000;stroke-width:0.80000001;stroke-linecap:butt;stroke-linejoin:round;stroke-miterlimit:10;stroke-dasharray:none;stroke-opacity:1"
         d="m 560.67433,71.707188 v -3.5" /><text
         id="text134"
         style="font-variant:normal;font-weight:normal;font-size:26.89912796px;font-family:'Computer Modern';-inkscape-font-specification:CMR17;writing-mode:lr-tb;fill:#000000;fill-opacity:1;fill-rule:nonzero;stroke:none"
         transform="matrix(1,0,0,-1,554.50611,46.027238)"><tspan
           id="tspan132"
           y="0"
           x="0">4</tspan></text>
</g><g
       id="g136"><g
         clip-path="url(#clipPath142)"
         id="g138"><path
           id="path144"
           style="fill:none;stroke:#b0b0b0;stroke-width:0.80000001;stroke-linecap:butt;stroke-linejoin:round;stroke-miterlimit:10;stroke-dasharray:2.96, 1.28;stroke-dashoffset:0;stroke-opacity:0.3"
           d="M 646.63016,71.707188 V 474.54719" /></g></g><g
       id="g146"><path
         id="path148"
         style="fill:#000000;fill-opacity:1;fill-rule:nonzero;stroke:#000000;stroke-width:0.80000001;stroke-linecap:butt;stroke-linejoin:round;stroke-miterlimit:10;stroke-dasharray:none;stroke-opacity:1"
         d="m 646.63016,71.707188 v -3.5" /><text
         id="text152"
         style="font-variant:normal;font-weight:normal;font-size:26.89912796px;font-family:'Computer Modern';-inkscape-font-specification:CMR17;writing-mode:lr-tb;fill:#000000;fill-opacity:1;fill-rule:nonzero;stroke:none"
         transform="matrix(1,0,0,-1,640.46195,46.027238)"><tspan
           id="tspan150"
           y="0"
           x="0">6</tspan></text>
</g><g
       id="g154"><g
         clip-path="url(#clipPath160)"
         id="g156"><path
           id="path162"
           style="fill:none;stroke:#b0b0b0;stroke-width:0.80000001;stroke-linecap:butt;stroke-linejoin:round;stroke-miterlimit:10;stroke-dasharray:2.96, 1.28;stroke-dashoffset:0;stroke-opacity:0.3"
           d="M 732.58599,71.707188 V 474.54719" /></g></g><g
       id="g164"><path
         id="path166"
         style="fill:#000000;fill-opacity:1;fill-rule:nonzero;stroke:#000000;stroke-width:0.80000001;stroke-linecap:butt;stroke-linejoin:round;stroke-miterlimit:10;stroke-dasharray:none;stroke-opacity:1"
         d="m 732.58599,71.707188 v -3.5" /><text
         id="text170"
         style="font-variant:normal;font-weight:normal;font-size:26.89912796px;font-family:'Computer Modern';-inkscape-font-specification:CMR17;writing-mode:lr-tb;fill:#000000;fill-opacity:1;fill-rule:nonzero;stroke:none"
         transform="matrix(1,0,0,-1,726.41778,46.027238)"><tspan
           id="tspan168"
           y="0"
           x="0">8</tspan></text>
<text
         id="text174"
         style="font-variant:normal;font-weight:normal;font-size:26.89912796px;font-family:'Computer Modern';-inkscape-font-specification:CMR17;writing-mode:lr-tb;fill:#000000;fill-opacity:1;fill-rule:nonzero;stroke:none"
         transform="matrix(1,0,0,-1,287.7161,14.896085)"><tspan
           id="tspan172"
           y="0"
           x="0 15.466999 27.7868 37.30909 48.230137 57.75243 70.072227 84.890617 97.210419 108.13146 119.05251 129.97356 136.67143 147.59248 157.11478 169.43457 178.95686 185.65475 197.97455">Lateralacceleration</tspan></text>
<text
         id="text178"
         style="font-style:italic;font-variant:normal;font-weight:normal;font-size:26.89912796px;font-family:'Computer Modern';-inkscape-font-specification:CMMI12;writing-mode:lr-tb;fill:#000000;fill-opacity:1;fill-rule:nonzero;stroke:none"
         transform="matrix(1,0,0,-1,507.77835,14.896085)"><tspan
           id="tspan176"
           y="0"
           x="0">a</tspan></text>
<text
         id="text182"
         style="font-style:italic;font-variant:normal;font-weight:normal;font-size:18.82930756px;font-family:'Computer Modern';-inkscape-font-specification:CMMI12;writing-mode:lr-tb;fill:#000000;fill-opacity:1;fill-rule:nonzero;stroke:none"
         transform="matrix(1,0,0,-1,521.60446,10.861228)"><tspan
           id="tspan180"
           y="0"
           x="0">y</tspan></text>
<text
         id="text186"
         style="font-variant:normal;font-weight:normal;font-size:26.89912796px;font-family:'Computer Modern';-inkscape-font-specification:CMR17;writing-mode:lr-tb;fill:#000000;fill-opacity:1;fill-rule:nonzero;stroke:none"
         transform="matrix(1,0,0,-1,539.88827,14.896085)"><tspan
           id="tspan184"
           y="0"
           x="0 6.6978831 27.46401 39.78381">[m/s</tspan></text>
<text
         id="text190"
         style="font-variant:normal;font-weight:normal;font-size:18.82930756px;font-family:'Computer Modern';-inkscape-font-specification:CMR17;writing-mode:lr-tb;fill:#000000;fill-opacity:1;fill-rule:nonzero;stroke:none"
         transform="matrix(1,0,0,-1,589.37451,24.65756)"><tspan
           id="tspan188"
           y="0"
           x="0">2</tspan></text>
<text
         id="text194"
         style="font-variant:normal;font-weight:normal;font-size:26.89912796px;font-family:'Computer Modern';-inkscape-font-specification:CMR17;writing-mode:lr-tb;fill:#000000;fill-opacity:1;fill-rule:nonzero;stroke:none"
         transform="matrix(1,0,0,-1,598.50809,14.896085)"><tspan
           id="tspan192"
           y="0"
           x="0">]</tspan></text>
</g><g
       id="g196"><g
         clip-path="url(#clipPath202)"
         id="g198"><path
           id="path204"
           style="fill:none;stroke:#b0b0b0;stroke-width:0.80000001;stroke-linecap:butt;stroke-linejoin:round;stroke-miterlimit:10;stroke-dasharray:2.96, 1.28;stroke-dashoffset:0;stroke-opacity:0.3"
           d="M 80.059366,112.57043 H 812.88" /></g></g><g
       id="g206"><path
         id="path208"
         style="fill:#000000;fill-opacity:1;fill-rule:nonzero;stroke:#000000;stroke-width:0.80000001;stroke-linecap:butt;stroke-linejoin:round;stroke-miterlimit:10;stroke-dasharray:none;stroke-opacity:1"
         d="m 80.059366,112.57043 h -3.5" /><text
         id="text212"
         style="font-style:italic;font-variant:normal;font-weight:normal;font-size:26.89912796px;font-family:'Computer Modern';-inkscape-font-specification:CMSY10;writing-mode:lr-tb;fill:#000000;fill-opacity:1;fill-rule:nonzero;stroke:none"
         transform="matrix(1,0,0,-1,39.801333,103.23045)"><tspan
           id="tspan210"
           y="0"
           x="0">−</tspan></text>
<text
         id="text216"
         style="font-variant:normal;font-weight:normal;font-size:26.89912796px;font-family:'Computer Modern';-inkscape-font-specification:CMR17;writing-mode:lr-tb;fill:#000000;fill-opacity:1;fill-rule:nonzero;stroke:none"
         transform="matrix(1,0,0,-1,60.722938,103.23045)"><tspan
           id="tspan214"
           y="0"
           x="0">4</tspan></text>
</g><g
       id="g218"><g
         clip-path="url(#clipPath224)"
         id="g220"><path
           id="path226"
           style="fill:none;stroke:#b0b0b0;stroke-width:0.80000001;stroke-linecap:butt;stroke-linejoin:round;stroke-miterlimit:10;stroke-dasharray:2.96, 1.28;stroke-dashoffset:0;stroke-opacity:0.3"
           d="M 80.059366,210.48611 H 812.88" /></g></g><g
       id="g228"><path
         id="path230"
         style="fill:#000000;fill-opacity:1;fill-rule:nonzero;stroke:#000000;stroke-width:0.80000001;stroke-linecap:butt;stroke-linejoin:round;stroke-miterlimit:10;stroke-dasharray:none;stroke-opacity:1"
         d="m 80.059366,210.48611 h -3.5" /><text
         id="text234"
         style="font-style:italic;font-variant:normal;font-weight:normal;font-size:26.89912796px;font-family:'Computer Modern';-inkscape-font-specification:CMSY10;writing-mode:lr-tb;fill:#000000;fill-opacity:1;fill-rule:nonzero;stroke:none"
         transform="matrix(1,0,0,-1,39.801333,201.14613)"><tspan
           id="tspan232"
           y="0"
           x="0">−</tspan></text>
<text
         id="text238"
         style="font-variant:normal;font-weight:normal;font-size:26.89912796px;font-family:'Computer Modern';-inkscape-font-specification:CMR17;writing-mode:lr-tb;fill:#000000;fill-opacity:1;fill-rule:nonzero;stroke:none"
         transform="matrix(1,0,0,-1,60.722938,201.14613)"><tspan
           id="tspan236"
           y="0"
           x="0">2</tspan></text>
</g><g
       id="g240"><g
         clip-path="url(#clipPath246)"
         id="g242"><path
           id="path248"
           style="fill:none;stroke:#b0b0b0;stroke-width:0.80000001;stroke-linecap:butt;stroke-linejoin:round;stroke-miterlimit:10;stroke-dasharray:2.96, 1.28;stroke-dashoffset:0;stroke-opacity:0.3"
           d="M 80.059366,308.40179 H 812.88" /></g></g><g
       id="g250"><path
         id="path252"
         style="fill:#000000;fill-opacity:1;fill-rule:nonzero;stroke:#000000;stroke-width:0.80000001;stroke-linecap:butt;stroke-linejoin:round;stroke-miterlimit:10;stroke-dasharray:none;stroke-opacity:1"
         d="m 80.059366,308.40179 h -3.5" /><text
         id="text256"
         style="font-variant:normal;font-weight:normal;font-size:26.89912796px;font-family:'Computer Modern';-inkscape-font-specification:CMR17;writing-mode:lr-tb;fill:#000000;fill-opacity:1;fill-rule:nonzero;stroke:none"
         transform="matrix(1,0,0,-1,60.722938,299.06181)"><tspan
           id="tspan254"
           y="0"
           x="0">0</tspan></text>
</g><g
       id="g258"><g
         clip-path="url(#clipPath264)"
         id="g260"><path
           id="path266"
           style="fill:none;stroke:#b0b0b0;stroke-width:0.80000001;stroke-linecap:butt;stroke-linejoin:round;stroke-miterlimit:10;stroke-dasharray:2.96, 1.28;stroke-dashoffset:0;stroke-opacity:0.3"
           d="M 80.059366,406.31747 H 812.88" /></g></g><g
       id="g268"><path
         id="path270"
         style="fill:#000000;fill-opacity:1;fill-rule:nonzero;stroke:#000000;stroke-width:0.80000001;stroke-linecap:butt;stroke-linejoin:round;stroke-miterlimit:10;stroke-dasharray:none;stroke-opacity:1"
         d="m 80.059366,406.31747 h -3.5" /><text
         id="text274"
         style="font-variant:normal;font-weight:normal;font-size:26.89912796px;font-family:'Computer Modern';-inkscape-font-specification:CMR17;writing-mode:lr-tb;fill:#000000;fill-opacity:1;fill-rule:nonzero;stroke:none"
         transform="matrix(1,0,0,-1,60.722938,396.97749)"><tspan
           id="tspan272"
           y="0"
           x="0">2</tspan></text>
<text
         id="text278"
         style="font-variant:normal;font-weight:normal;font-size:26.89912796px;font-family:'Computer Modern';-inkscape-font-specification:CMR17;writing-mode:lr-tb;fill:#000000;fill-opacity:1;fill-rule:nonzero;stroke:none"
         transform="matrix(0,1,1,0,29.099049,83.829296)"><tspan
           id="tspan276"
           y="0"
           x="0 15.466999 27.7868 41.505356 53.825157 60.523037 70.045326 83.763885 97.482437 104.18032 117.89888 130.21867 145.03706 157.35687 168.27791 179.19896 190.12001 196.81789 207.73894 217.26123 229.58102 239.10332 245.80119 258.121">Longitudinalacceleration</tspan></text>
<text
         id="text282"
         style="font-style:italic;font-variant:normal;font-weight:normal;font-size:26.89912796px;font-family:'Computer Modern';-inkscape-font-specification:CMMI12;writing-mode:lr-tb;fill:#000000;fill-opacity:1;fill-rule:nonzero;stroke:none"
         transform="matrix(0,1,1,0,29.099049,364.16836)"><tspan
           id="tspan280"
           y="0"
           x="0">a</tspan></text>
<text
         id="text286"
         style="font-style:italic;font-variant:normal;font-weight:normal;font-size:18.82930756px;font-family:'Computer Modern';-inkscape-font-specification:CMMI12;writing-mode:lr-tb;fill:#000000;fill-opacity:1;fill-rule:nonzero;stroke:none"
         transform="matrix(0,1,1,0,33.133906,377.99447)"><tspan
           id="tspan284"
           y="0"
           x="0">x</tspan></text>
<text
         id="text290"
         style="font-variant:normal;font-weight:normal;font-size:26.89912796px;font-family:'Computer Modern';-inkscape-font-specification:CMR17;writing-mode:lr-tb;fill:#000000;fill-opacity:1;fill-rule:nonzero;stroke:none"
         transform="matrix(0,1,1,0,29.099049,397.09008)"><tspan
           id="tspan288"
           y="0"
           x="0 6.6978831 27.46401 39.78381">[m/s</tspan></text>
<text
         id="text294"
         style="font-variant:normal;font-weight:normal;font-size:18.82930756px;font-family:'Computer Modern';-inkscape-font-specification:CMR17;writing-mode:lr-tb;fill:#000000;fill-opacity:1;fill-rule:nonzero;stroke:none"
         transform="matrix(0,1,1,0,19.337574,446.57632)"><tspan
           id="tspan292"
           y="0"
           x="0">2</tspan></text>
<text
         id="text298"
         style="font-variant:normal;font-weight:normal;font-size:26.89912796px;font-family:'Computer Modern';-inkscape-font-specification:CMR17;writing-mode:lr-tb;fill:#000000;fill-opacity:1;fill-rule:nonzero;stroke:none"
         transform="matrix(0,1,1,0,29.099049,455.70991)"><tspan
           id="tspan296"
           y="0"
           x="0">]</tspan></text>
</g><g
       id="g300"><g
         clip-path="url(#clipPath306)"
         id="g302"><path
           id="path308"
           style="fill:none;stroke:#1f77b4;stroke-width:3;stroke-linecap:square;stroke-linejoin:round;stroke-miterlimit:10;stroke-dasharray:none;stroke-opacity:1"
           d="m 578.5377,401.79278 -4.22994,1.73997 -3.56653,1.8185 -4.65038,2.74245 -2.99696,1.74975 -3.20471,1.61625 -3.66138,1.42215 -2.07972,0.61935 -2.28723,0.54812 -2.52585,0.46931 -2.79557,0.38291 -3.09643,0.28896 -3.42838,0.18743 -3.79144,0.0783 -4.1792,-0.0385 -4.55268,-0.16363 -4.89733,-0.29741 -5.21313,-0.43984 -5.50008,-0.59088 -5.75816,-0.75056 -5.9874,-0.91887 -6.18778,-1.0958 -6.3593,-1.28136 -6.50198,-1.47555 -6.61248,-1.67723 -6.66598,-1.87779 -6.65119,-2.07333 -6.56807,-2.26384 -6.4166,-2.44931 -6.19679,-2.62973 -5.90864,-2.80514 -5.55216,-2.97549 -5.12732,-3.14082 -4.63416,-3.3011 -4.08062,-3.45585 -3.54166,-3.60033 -3.05833,-3.73197 -2.63105,-3.85074 -2.25982,-3.95661 -1.94464,-4.04963 -1.68552,-4.12977 -1.48244,-4.19702 -2.57986,-8.54433 -3.70708,-12.99174 -1.37533,-4.31845 -1.51682,-4.28702 -1.70129,-4.24039 -1.92874,-4.17855 -2.19919,-4.10149 -2.51261,-4.00922 -2.86904,-3.90173 -3.26594,-3.77918 -3.66454,-3.64384 -4.03424,-3.4975 -4.37423,-3.34023 -4.68449,-3.172 -4.96503,-2.99284 -5.21585,-2.80271 -5.43694,-2.60166 -5.62832,-2.38964 -5.78997,-2.1667 -5.92182,-1.93349 -6.02222,-1.70438 -6.08961,-1.49289 -6.12394,-1.29954 -6.12519,-1.12435 -6.09339,-0.96729 -11.95907,-1.53601 -11.43504,-1.12554 -34.02123,-2.90218 -4.18358,-0.55171 -4.04537,-0.64708 -3.91747,-0.7628 -3.79972,-0.89861 -3.68394,-1.04224 -3.55915,-1.17725 -3.4246,-1.30246 -3.28028,-1.41788 -3.12617,-1.52351 -2.96231,-1.61934 -2.78866,-1.70539 -2.60524,-1.78164 -2.41205,-1.84809 -2.2091,-1.90466 -1.99757,-1.9454 -1.77933,-1.96065 -1.55455,-1.94956 -1.32325,-1.91213 -1.08541,-1.84835 -0.84104,-1.75821 -0.59014,-1.64174 -0.33269,-1.49892 -0.0687,-1.32975 0.20168,-1.13431 0.46707,-0.92208 0.70514,-0.71143 0.91335,-0.50449 1.09169,-0.30125 1.24017,-0.10172 1.35878,0.0941 1.44752,0.28625 1.50641,0.47468 1.53543,0.6594 1.53461,0.84042 1.51483,1.01646 1.50152,1.18458 3.00363,2.8401 3.07197,3.41229 4.91343,6.04511 14.4547,18.4543 8.34753,10.9682 10.09461,13.60342 7.39504,10.30698 7.47917,10.88518 7.17506,11.10554 3.35216,5.52359 3.13054,5.4445 2.86662,5.32501 2.58712,5.18371 2.29915,5.02556 2.00275,4.85057 1.69788,4.65874 1.38457,4.45005 1.06281,4.22453 0.7326,3.98215 0.39393,3.72294 0.0468,3.44688 -0.30018,3.16108 -0.60198,2.90294 -0.84383,2.68471 -1.0257,2.50641 -2.35715,4.63759 -2.36502,4.40343 -1.03554,2.21371 -0.85759,2.27493 -0.62536,2.37062 -0.3756,2.46543 -0.12303,2.54521 0.13233,2.60994 0.39047,2.65961 0.6514,2.69423 0.9151,2.7138 1.18159,2.7183 1.45086,2.70777 1.72292,2.68216 1.99531,2.64069 2.24833,2.57665 2.47243,2.48681 2.66755,2.37115 2.83369,2.22969 2.97085,2.06241 3.07903,1.86932 3.15824,1.6504 3.20846,1.40567 3.22971,1.13513 3.22447,0.83935 3.21816,0.52414 3.22555,0.19291 3.24685,-0.15431 3.28203,-0.51752 3.33113,-0.8967 3.39412,-1.29189 3.47101,-1.70304 3.5618,-2.13019 3.66648,-2.57333 3.78424,-3.03016 3.90422,-3.47111 4.01887,-3.87544 4.12802,-4.24273 4.23167,-4.573 8.75232,-9.98863 9.10098,-10.86528 28.61614,-34.61127 9.38715,-10.85362 4.54504,-5.05279 4.41023,-4.73043 4.24859,-4.35332 4.06055,-3.92291 3.85634,-3.4733 3.64614,-3.03848 3.43043,-2.61998 3.20918,-2.21777 2.98241,-1.83187 2.75011,-1.46226 2.51228,-1.10895 2.26893,-0.77194 2.02005,-0.45124 1.76576,-0.14696 1.50977,0.13665 1.25653,0.39452 1.00628,0.62636 0.75905,0.83217 0.51482,1.01194 0.27359,1.16568 0.0354,1.29338 -0.19984,1.39507 -0.43205,1.4707 -0.66092,1.52031 -0.87001,1.54396 -1.0358,1.54172 -2.38865,2.97326 -2.51075,2.6539 -3.20593,2.92932 -1.47381,1.10041 1.26856,-0.92794 2.82311,-1.73549 4.72248,-2.62137 6.86791,-3.49366 8.89044,-4.25194 10.51606,-4.8216 11.73823,-5.20091 12.557,-5.38985 19.53408,-8.07468 26.10426,-10.73813 12.66062,-5.48573 12.15359,-5.64082 5.83037,-2.89143 11.07687,-5.86771 10.18682,-5.86699 9.16293,-5.72963 8.00515,-5.45563 6.71267,-5.0478 2.82489,-2.34474 2.44221,-2.22271 2.03808,-2.09937 1.61249,-1.97472 1.16543,-1.84873 0.69691,-1.72143 0.20694,-1.5928 -0.3045,-1.46287 -0.8374,-1.3316 -1.37989,-1.20162 -1.87759,-1.08487 -2.31489,-0.98476 -2.69179,-0.9013 -3.00832,-0.83447 -6.72464,-1.53507 -14.59406,-3.00029 -7.02315,-1.72019 -3.32296,-0.96474 -3.15907,-1.05267 -2.96656,-1.15426 -2.74543,-1.26947 -2.4957,-1.39833 -2.21734,-1.54082 -1.91036,-1.69695 -1.57949,-1.86438 -1.25751,-2.02663 -0.9584,-2.17675 -0.68224,-2.31469 -0.429,-2.44045 -0.1987,-2.55404 0.009,-2.65546 0.19313,-2.7447 0.35464,-2.82176 1.10268,-5.82318 1.50109,-5.8511 1.77954,-5.47181 0.95755,-2.46231 0.98319,-2.20985 0.99418,-1.90486 0.9905,-1.54732 0.97217,-1.13724 0.93875,-0.67804 0.88547,-0.20748 0.80936,0.25102 0.71042,0.69716 0.58859,1.13091 0.44391,1.55226 0.27638,1.96123 0.086,2.35783 -0.12728,2.74202 -0.3634,3.11384 -0.6206,3.47221 -0.87351,3.80199 -1.10331,4.09194 -1.30956,4.34179 -3.14367,9.27281 -3.68601,9.79115 -4.03992,9.98876 -12.20839,28.98795 -1.75037,4.614 -1.59218,4.54288 -1.40515,4.46836 -1.18927,4.39047 -0.94567,4.30956 -0.70354,4.23504 -0.49383,4.17687 -0.31804,4.13554 -0.24443,8.21444 -0.0297,25.38658 -0.52267,8.95951 -0.94397,9.06826 -0.64729,4.53142 -0.7734,4.50644 -0.90644,4.46405 -1.04641,4.40427 -1.19311,4.32707 -1.33593,4.23033 -1.45875,4.1109 -1.56019,3.96851 -1.64027,3.80314 -1.69899,3.61481 -1.73634,3.40351 -1.75233,3.16925 -1.74695,2.91201 -1.72021,2.63182 -1.67222,2.32882 -1.61372,2.0193 -1.56434,1.73298 -1.52618,1.47299 -1.49923,1.23938 -1.48348,1.0321 -1.47895,0.85119 -1.48563,0.69661 -3.03614,1.03495 -3.18904,0.72204 -3.29965,0.44809 -3.27331,0.0899 -1.58324,-0.11673 -1.52441,-0.23907 -1.44816,-0.37232 -1.3545,-0.51651 -1.24343,-0.67161 -1.11868,-0.83226 -0.99029,-0.98409 -0.85988,-1.12473 -0.72746,-1.25418 -0.59305,-1.37243 -0.45662,-1.4795 -0.31819,-1.57537 -0.17776,-1.66005 -0.0353,-1.73354 0.10913,-1.79584 0.25116,-1.83992 0.37633,-1.84291 1.04891,-3.51168 1.3119,-2.9744 0.70505,-1.1713 0.71139,-0.89967 0.69792,-0.58228 0.66464,-0.21912 0.61584,0.17667 0.56867,0.55247 0.52742,0.89516 0.49207,1.20473 0.90178,3.20567 0.83137,4.0465 1.21326,7.06707 0.7033,5.00063 0.2319,2.49524 0.10779,2.4514 -0.0495,2.37722 -0.24006,2.2727 -0.4638,2.13782 -0.72075,1.97261 -1.0109,1.77705 -1.32776,1.55626 -1.63199,1.34113 -1.90888,1.14324 -2.1584,0.96259 -2.38057,0.79917 -2.57537,0.65303 -2.74279,0.5241 -5.87842,0.73046 -6.21935,0.42039 -6.32497,0.19242 -6.17438,-0.0246 -5.76616,-0.23549 -5.10033,-0.44025 -4.18039,-0.63894 -3.17773,-0.83557 -1.2624,-0.49261 -1.07496,-0.54316 -0.91016,-0.59421 -0.76801,-0.64578 -1.20012,-1.44824 -0.902,-1.66069 -0.70701,-1.88776 -0.49495,-2.14584 -0.25533,-2.43634 0.0118,-2.75928 0.30645,-3.11495 0.61793,-3.52823 0.92823,-4.04181 1.96759,-7.25431 3.68519,-12.42661 3.63143,-11.39878 2.91365,-8.33631 3.36074,-8.75079 3.85306,-9.01495 2.12128,-4.55566 2.24928,-4.55357 2.37457,-4.52456 2.49721,-4.46864 2.61716,-4.38579 2.73444,-4.27603 2.84904,-4.13936 2.96096,-3.97575 3.07022,-3.78525 3.17669,-3.56816 3.27664,-3.33863 3.36499,-3.11573 3.44135,-2.90081 3.50577,-2.69384 3.55821,-2.49484 3.59868,-2.30383 3.62719,-2.12076 3.64374,-1.94568 3.64831,-1.77855 3.64095,-1.61946 7.22036,-2.8137 7.08544,-2.3644 10.23792,-3.01665 9.58139,-2.80916 5.93533,-1.94567 8.21673,-2.94875 14.08004,-5.16711 9.70466,-3.13552 6.99278,-2.35628 3.37093,-1.31981 3.2722,-1.5046 3.13309,-1.75605 2.95362,-2.07417 1.39689,-1.17721 1.33689,-1.28173 2.49996,-2.86059 3.50382,-4.66019 2.32876,-3.04282 2.44863,-2.74352 1.30291,-1.19306 1.36756,-1.04201 1.4157,-0.883 1.44081,-0.7201 1.4429,-0.5533 1.42196,-0.3826 1.37802,-0.208 1.31103,-0.0295 1.22103,0.15291 1.10801,0.33921 0.97196,0.52942 0.81464,0.7212 0.64525,0.90228 0.46682,1.06867 0.27935,1.22035 0.0828,1.35731 -0.12274,1.47959 -0.33734,1.58714 -0.56101,1.68 -0.7937,1.75815 -1.03544,1.82158 -1.28231,1.87265 -1.5088,1.92644 -3.57489,4.04935 -8.52303,9.13047 -4.45904,5.22164 -2.17366,2.80441 -2.11216,2.93359 -2.04283,3.05553 -1.96573,3.17019 -1.88084,3.27761 -1.78818,3.37776 -1.68775,3.47064 -1.57954,3.55626 -1.46355,3.63461 -1.33978,3.70571 -1.20644,3.768 -1.04529,3.80599 -0.84567,3.81058 -0.60746,3.7817 -0.33067,3.71932 -0.0153,3.62346 0.33869,3.49411 0.73124,3.33127 1.1624,3.13494 1.63213,2.90514 2.13604,2.64414 2.61672,2.382 3.034,2.13972 3.38707,1.91773 3.67594,1.71602 3.90058,1.53461 4.06103,1.37347 4.15725,1.23263 8.34633,2.12389 14.98915,3.51564 2.99676,0.88655 2.55943,0.94741 2.05354,1.0372 1.4791,1.1559 0.83611,1.30352 0.12454,1.48006 -0.65267,1.68429 -1.42841,1.88834 -2.13563,2.06433 -2.7714,2.21104 -3.33572,2.32847 -3.82857,2.41662 -4.24998,2.47549 -4.59993,2.50509 -4.87843,2.5054 -5.08548,2.47643 -10.52663,4.76704 -10.73685,4.5138 -31.07511,12.64588 -9.19666,4.12458 -8.38192,4.15413 -7.57557,4.20125 -3.48845,2.12371 -3.29051,2.14199 -3.09379,2.16244 -2.89829,2.18505 -2.70402,2.2097 -2.51183,2.22639 -4.46159,4.40048 -3.73699,4.15173 -4.31204,5.29129 -2.85584,3.53888 -1.24854,1.27717 -0.94587,0.60932 -0.84213,0.13258 -1.50385,-0.277 -2.30794,-0.3755 -3.42384,-0.27359 -3.02721,-0.063 -3.71021,0.0764 -6.92029,0.40417 -21.38569,1.4967 -10.73271,0.46735 -7.22846,0.12807 -6.99101,-0.0769 -6.49972,-0.33169 -5.75959,-0.63482 -4.89789,-0.94709 -2.12962,-0.58063 -1.92008,-0.64628 -1.71303,-0.70762 -1.5085,-0.76466 -1.30647,-0.8174 -1.10693,-0.86582 -0.90991,-0.90994 -0.71694,-0.94883 -0.53678,-0.97729 -0.37248,-0.99349 -0.22407,-0.99743 -0.0915,-0.98912 0.15107,-1.90426 0.49074,-1.72389 0.70418,-1.4493 1.2537,-1.81825 0.8785,-1.31152 0.8434,-1.66945 0.74891,-2.26604 0.62306,-3.07987 2.00354,-11.76511 1.48206,-6.45483 0.98258,-3.6255 1.17418,-3.89603 1.37386,-4.14087 1.57261,-4.34212 1.77029,-4.49948 1.96691,-4.61297 2.16247,-4.68259 2.35695,-4.70835 2.55038,-4.69022 2.74274,-4.62822 2.93403,-4.52236 3.12262,-4.3745 3.28505,-4.21141 3.40394,-4.05297 3.47886,-3.89963 7.00666,-7.35965 12.97823,-13.10395 5.3154,-5.84054 4.50791,-5.55748 3.96113,-5.50396 3.67628,-5.68033 3.65335,-6.08659 7.99041,-13.92897 10.91187,-19.10882 6.58735,-11.13941 9.97054,-16.60002 3.27253,-5.79736 2.67605,-5.24031 2.04969,-4.65373 3.77527,-9.22245 0.75866,-1.45954 0.82836,-1.33956 0.92726,-1.22306 1.03989,-1.10394 1.13805,-0.97105 1.2187,-0.82317 1.28189,-0.6603 1.32757,-0.48246 1.35577,-0.28964 1.36649,-0.0818 1.35971,0.14094 1.33545,0.37872 1.29371,0.63141 1.23627,0.8908 1.16707,1.13869 1.08661,1.37265 0.99491,1.59268 0.89197,1.7988 0.77777,1.99099 0.65233,2.16924 0.51564,2.33358 0.36771,2.48399 0.20854,2.62048 0.0465,2.74277 -0.0961,2.85014 -0.52739,5.96225 -1.2819,9.37272 -1.31542,9.52705 -0.59734,6.24649 -0.2076,6.06987 0.0826,2.94789 0.22836,2.87876 0.39021,2.80131 0.56816,2.71554 0.76222,2.62143 0.97237,2.51901 1.18942,2.4077 1.37647,2.28526 1.52435,2.15111 1.633,2.00528 1.70247,1.84774 1.73273,1.67851 1.7238,1.49757 3.26401,2.40559 2.76568,1.54491 1.15278,0.44448 1.02024,0.24229 0.90628,0.0537 0.81089,-0.12125 0.73406,-0.28259 0.67581,-0.43031 1.2511,-1.24928 1.2394,-1.67621 3.56459,-5.1957 1.71232,-2.10082 1.93123,-1.89622 2.16991,-1.56438 2.33555,-1.20215 2.39669,-0.84234 2.35332,-0.48497 2.20542,-0.13004 1.98046,0.2061 2.76283,0.6702 1.92363,0.46177 2.16535,0.29308 2.55557,-0.0291 2.93182,-0.42328 3.03964,-0.76162 2.85685,-1.03305 2.38345,-1.23754 0.92339,-0.67454 0.69786,-0.70031 0.46569,-0.71363 0.24888,-0.71144 0.048,-0.69369 -0.13689,-0.66036 -0.30585,-0.61145 -0.45886,-0.54697 -0.59592,-0.46691 -0.71702,-0.37128 -0.82218,-0.26006 -0.91132,-0.13391 -0.98305,-0.006 -2.10632,0.33039 -2.16815,0.71399 -2.07976,1.01059 -1.84118,1.22017 -1.47342,1.35013 -1.17389,1.47014 -1.58544,2.49206 -1.9075,2.92205 -1.73267,2.23432 -3.3529,3.84488 -7.01379,7.92169 -3.09516,3.76418 -3.11489,4.09429 -3.00214,4.37691 -2.75651,4.61156 -1.24462,2.37879 -1.13338,2.41947 -1.00562,2.45412 -1.6301,4.96248 -1.24704,4.9064 -2.48119,10.98908 -1.14826,3.47419 -0.662,1.46987 -0.72142,1.27466 -0.78101,1.06681 -0.84079,0.8463 -0.90074,0.61318 -0.96089,0.3674 -1.0212,0.10898 -1.0817,-0.16208 -1.14238,-0.44576 -1.19768,-0.73238 -1.23184,-0.99424 -1.24202,-1.22645 -1.22824,-1.42899 -1.19049,-1.60185 -1.12877,-1.74507 -1.0431,-1.85861 -0.93345,-1.94249 -0.79985,-1.99671 -0.64227,-2.02125 -0.46812,-2.01833 -0.30328,-1.9955 -0.15334,-1.95447 -0.0183,-1.89519 0.30873,-3.5397 0.66976,-3.08393 0.91143,-2.48237 1.04749,-1.79228 1.13478,-1.25068 1.18801,-0.91888 2.39941,-1.68155 1.13674,-1.15709 1.01066,-1.49882 0.8054,-1.87677 0.52098,-2.29098 0.1291,-1.31214 0.0283,-1.42927 -0.082,-1.54864 -0.19966,-1.65527 -0.32366,-1.74318 -0.45406,-1.81236 -0.59083,-1.86281 -0.73398,-1.89454 -0.88353,-1.90753 -1.03944,-1.90179 -1.20173,-1.87733 -1.37042,-1.83414 -1.54262,-1.77275 -1.69516,-1.6975 -1.81687,-1.6105 -1.90764,-1.51175 -1.96752,-1.40124 -1.99645,-1.279 -3.95607,-2.14425 -1.89778,-0.84176 -1.80304,-0.67252 -1.68036,-0.49143 -1.55984,-0.29752 -1.45904,-0.0902 -1.3782,0.13058 -1.31729,0.36476 -1.27632,0.61236 -1.25531,0.87338 -1.25422,1.14782 -1.27309,1.43569 -1.3119,1.73697 -1.37006,2.05041 -2.9563,5.01259 -3.28698,6.12228 -12.34998,23.74463 -5.04801,9.19892 -5.38357,9.36476 -5.57658,9.16582 -5.62706,8.60208 -2.78791,3.97565 -2.74726,3.69869 -2.69338,3.39451 -2.63061,3.08078 -2.55919,2.75824 -2.47909,2.42687 -2.39031,2.08671 -2.29287,1.73774 -2.18674,1.37995 -2.07195,1.01337 -1.94848,0.63797 -1.81632,0.25415 -1.67505,-0.12524 -1.52411,-0.48488 -1.3635,-0.82388 -1.1932,-1.14223 -1.01323,-1.43993 -0.82356,-1.71698 -0.62422,-1.97338 -0.4152,-2.20913 -0.19648,-2.42423 0.0317,-2.61866 0.2598,-2.79067 0.47411,-2.93785 0.67356,-3.06 0.85817,-3.1571 1.02793,-3.22917 1.18285,-3.27622 1.32291,-3.29822 1.44813,-3.29519 3.21259,-6.48127 3.56679,-6.21621 1.91346,-2.99794 2.0013,-2.92264 2.08997,-2.84597 2.17949,-2.76792 2.26984,-2.68847 2.36104,-2.60766 2.45307,-2.52545 2.54595,-2.4419 5.36882,-4.66087 5.72577,-4.47189 6.0673,-4.41727 20.08658,-14.23595 10.88721,-8.13457 7.4322,-5.79301 7.49542,-6.06877 7.49398,-6.32413 11.12157,-9.77985 24.5933,-21.93369 9.40068,-8.24647 5.50603,-5.18758 2.4538,-2.53235 2.22281,-2.50543 1.96819,-2.48904 1.68995,-2.48318 1.39399,-2.48557 1.10748,-2.48573 0.83822,-2.48067 0.58617,-2.4704 0.35137,-2.45489 0.1338,-2.43418 -0.0666,-2.40823 -0.24965,-2.37707 -0.41553,-2.34068 -0.56418,-2.29908 -1.46376,-4.4275 -2.81408,-7.44284 -0.36252,-1.40598 -0.1173,-1.16904 0.18233,-0.90459 0.53635,-0.61261 0.93551,-0.29849 1.31503,4e-4 1.64733,0.26812 1.93232,0.50458 4.53032,1.59369 5.10248,2.16482 5.29609,2.48609 5.12406,2.58967 4.66153,2.66344 2.07505,1.3713 1.86069,1.40406 1.61345,1.44161 1.33328,1.48395 1.02021,1.53106 0.67426,1.58296 0.29867,1.63981 -0.0702,1.70335 -0.40999,1.77469 -0.72025,1.85383 -1.00105,1.9408 -1.25235,2.03557 -3.14069,4.38669 -10.22368,13.06233 -11.47157,14.50353 -6.59818,7.92629 -7.70225,8.92297 -3.26604,4.17767 -1.46733,2.11539 -1.34947,2.17024 -1.22605,2.25295 -1.09742,2.36312 -0.97187,2.49071 -0.85823,2.62502 -0.75693,2.76552 -1.25932,5.97743 -1.00216,6.61398 -0.84372,7.30019 -1.5529,16.50901 -1.65744,16.96766 -0.95132,7.72453 -1.07299,6.75097 -1.1719,5.77506 -1.82124,7.30468 -2.73565,10.37229 -0.82302,4.0943 -0.57929,4.27278 -0.27585,4.57552 0.0873,5.00251 0.50222,5.53589 0.85008,5.91067 1.58124,8.77656 2.12206,11.34915 0.30373,2.60126 -0.0363,1.52216 -0.14171,0.38936 -0.22199,0.15913 -0.3007,-0.0579 -0.37781,-0.2618 -0.98069,-1.0825 -2.01004,-2.82328 -5.80441,-8.65998 v 0" /></g></g><g
       id="g310"><g
         clip-path="url(#clipPath316)"
         id="g312"><path
           id="path318"
           style="fill:none;stroke:#ff7f0e;stroke-width:3;stroke-linecap:square;stroke-linejoin:round;stroke-miterlimit:10;stroke-dasharray:none;stroke-opacity:1"
           d="m 657.25568,384.36614 -2.18165,2.87358 -1.97407,2.83444 -1.7841,2.79004 -3.0687,5.42571 -2.52011,5.1847 -2.11237,4.90146 -4.42147,10.73728 -1.79457,3.5775 -0.97329,1.61389 -1.04743,1.49029 -1.13917,1.36141 -1.24854,1.22724 -1.37375,1.08752 -1.50388,0.9405 -1.63474,0.78553 -1.7663,0.62261 -1.89858,0.45171 -2.03155,0.27286 -2.16524,0.0861 -2.29963,-0.10872 -2.43474,-0.31144 -2.57054,-0.52214 -2.71077,-0.74208 -2.88451,-0.98153 -3.10559,-1.24532 -3.37405,-1.53351 -3.68992,-1.84605 -4.05318,-2.18299 -9.38576,-5.47428 -11.40761,-7.11453 -21.4851,-13.92113 -17.07078,-10.99254 -19.01482,-11.87638 -10.16838,-6.13953 -10.57273,-6.20435 -10.94986,-6.21713 -11.29875,-6.17955 -11.60589,-6.11365 -11.8618,-6.03494 -12.06625,-5.94374 -12.21929,-5.84005 -12.32087,-5.72387 -12.37103,-5.59521 -12.36973,-5.45406 -12.31701,-5.30041 -24.2707,-10.09117 -67.15408,-27.23029 -10.03668,-4.38896 -9.62368,-4.42331 -9.1796,-4.48657 -8.70506,-4.57729 -8.21398,-4.66122 -7.72078,-4.7029 -7.22614,-4.70072 -6.73005,-4.65469 -6.23249,-4.56481 -5.7335,-4.43105 -5.23303,-4.25344 -4.73114,-4.03197 -7.95162,-7.22453 -10.87123,-10.36108 -2.07074,-1.67679 -1.95648,-1.29352 -1.91451,-0.9013 -1.94483,-0.50015 -2.04744,-0.09 -2.22165,0.32862 -2.42951,0.73497 -2.61341,1.09729 -2.76854,1.41294 -2.89488,1.68193 -2.99247,1.90423 -6.1626,4.28872 -9.25644,6.93384 -5.83128,4.51929 -5.24293,4.41794 -2.31293,2.19283 -2.06035,2.19375 -1.77261,2.20341 -1.44972,2.22182 -1.09166,2.24899 -0.69852,2.28492 -0.29093,2.33255 0.0846,2.39856 0.42154,2.48385 0.71997,2.58842 0.97991,2.71227 2.5855,5.87323 6.59969,14.07042 3.4858,8.29522 3.37743,8.91352 3.11382,9.32006 1.40954,4.74633 1.28541,4.76856 1.14188,4.76433 0.98456,4.73503 0.83289,4.68553 0.69105,4.61686 0.99595,8.95104 0.54665,8.44638 0.17606,7.78839 -0.11741,6.98251 -0.37241,6.16092 -0.62885,5.46005 -0.88855,4.88622 -1.15152,4.43938 -1.41535,4.11991 -2.44238,5.88441 -1.62294,3.94262 -1.44069,4.13215 -0.60432,2.18371 -0.50155,2.28696 -0.37999,2.40594 -0.24167,2.52116 -0.0874,2.62461 0.0828,2.71623 0.269,2.79605 0.47111,2.86404 0.68918,2.92023 0.92319,2.96459 1.17315,2.99716 1.43906,3.0179 1.71712,3.02589 1.97503,3.0132 2.1964,2.97577 2.38113,2.91361 2.52919,2.82669 2.64062,2.71501 2.71538,2.57858 2.7535,2.41741 2.75496,2.23148 2.71976,2.0208 2.65016,1.78713 2.5706,1.54996 2.49623,1.32128 2.42727,1.10127 2.36372,0.88994 2.30557,0.68728 2.25283,0.4933 2.2055,0.308 2.16358,0.13136 2.12705,-0.0366 2.09744,-0.19721 2.09637,-0.36971 2.14006,-0.56849 2.2289,-0.79391 2.36291,-1.04598 2.54207,-1.3247 2.76639,-1.63004 3.03586,-1.96204 3.3505,-2.32068 7.82429,-5.82292 9.49687,-7.48451 11.17244,-9.09958 19.85223,-16.53621 50.25918,-42.12579 9.45122,-7.64515 9.63745,-7.60436 9.7762,-7.47762 9.86748,-7.26493 9.91127,-6.96627 9.90757,-6.58166 9.85672,-6.11235 9.7716,-5.60963 9.66941,-5.14189 9.55137,-4.71388 9.41744,-4.32559 9.26765,-3.97703 9.10199,-3.6682 8.92047,-3.39909 17.23288,-6.14978 24.13001,-8.24771 7.57321,-2.71184 7.34278,-2.79785 7.11522,-2.9468 6.89053,-3.15871 6.66872,-3.43355 6.44978,-3.77136 6.23372,-4.1721 6.02051,-4.63543 5.80815,-5.11481 5.5927,-5.51834 5.37366,-5.83524 5.15105,-6.06552 4.92487,-6.20917 4.69511,-6.2662 4.46178,-6.23658 8.20929,-12.03785 10.53298,-15.76119 3.11026,-4.43479 2.96043,-3.97017 2.84127,-3.47298 2.75274,-2.94319 2.69488,-2.38084 2.66767,-1.7859 2.6711,-1.1584 2.70518,-0.49831 2.76346,0.17223 2.82659,0.78714 2.89099,1.33408 2.95665,1.81308 3.02356,2.22411 3.09173,2.56719 6.39305,5.8918 10.12639,9.71942 6.98242,6.45135 10.2163,9.06444 9.13012,7.71013 7.20625,5.71197 6.84653,5.31482 0.86693,1.04155 0.0219,0.35563 -0.25437,0.26956 -0.52293,0.21119 -1.80794,0.37135 -4.45332,0.89501 -4.0025,1.18404 -2.27859,0.86133 -2.44859,1.07769 -5.35091,2.76297 -5.85651,3.43035 -6.24286,3.92621 -13.16718,8.655 -13.14064,8.84575 -6.11905,4.33539 -5.57347,4.20988 -4.84513,4.03508 -2.10297,1.95172 -1.87878,1.92713 -1.64787,1.91932 -1.41026,1.92827 -1.16593,1.95403 -0.91489,1.99654 -0.65712,2.05585 -0.39266,2.13194 -0.12147,2.2248 0.15507,2.33269 0.41537,2.42783 0.64216,2.48798 0.83496,2.51253 0.99376,2.50147 1.11858,2.45481 2.47563,4.62722 2.56697,4.0133 2.39774,3.14428 2.06492,2.27369 2.22304,2.05593 0.83153,0.81386 -0.098,0.0699 -0.74298,-0.0549 -2.87792,-0.30539 -1.67435,0.0834 -0.79527,0.17375 -0.72908,0.28934 -0.64104,0.41299 -0.54075,0.52681 -0.42896,0.62947 -0.30566,0.72095 -0.17086,0.80124 -0.0246,0.87037 0.13324,0.92832 0.30255,0.9751 0.48336,1.01069 0.67554,1.03519 0.8677,1.05557 2.2312,2.20504 9.10178,8.02119 3.25741,3.37773 3.04613,3.73666 1.37201,1.96691 1.23289,2.01303 1.06495,2.04446 0.8682,2.06119 0.64263,2.06324 0.38824,2.0506 0.10508,2.02325 -0.18945,1.98292 -0.45015,1.93397 -0.66976,1.87714 -0.84828,1.8124 -0.98572,1.73975 -2.21938,3.23 -3.33266,4.10269 -2.48641,3.15304 -0.55374,0.90411 -0.39445,0.86252 -0.22207,0.84005 -0.0366,0.83669 0.16186,0.85246 0.37343,0.88735 0.59807,0.94134 1.84037,2.10243 3.69657,3.79062 2.5239,3.0108 1.13465,1.6657 0.98528,1.77932 0.78751,1.89799 0.54666,2.01913 0.28913,2.12968 0.0231,2.22562 -0.25132,2.30692 -0.53424,2.37362 -0.82563,2.42568 -1.12547,2.46311 -1.43378,2.48594 -1.75055,2.49412 -2.07578,2.4877 -2.40388,2.46743 -2.69989,2.43829 -2.95038,2.40219 -3.15529,2.3591 -3.31465,2.30905 -6.92515,4.44009 -7.01586,4.15626 -9.92085,5.57756 -8.49606,4.57773 -6.53009,3.31186 -4.03439,1.78005 -1.2354,0.25939 -0.28228,-0.13275 -0.11448,-0.29757 0.107,-1.0593 0.27584,-1.62752 0.11152,-2.13423 -0.27044,-2.52584 -0.68288,-2.71565 -0.50031,-1.36346 -0.60846,-1.33227 -0.71829,-1.27487 -0.8298,-1.19125 -0.94299,-1.08141 -1.05772,-0.94667 -1.17156,-0.81007 -1.28242,-0.69126 -1.39026,-0.59084 -3.09185,-0.95408 -3.48672,-0.77334 -10.21587,-2.08741 -4.34105,-1.19485 -2.11139,-0.71627 -2.03203,-0.80877 -1.92271,-0.91122 -1.78344,-1.02362 -1.61422,-1.14598 -1.41552,-1.27793 -1.20432,-1.40682 -1.00183,-1.5168 -0.80942,-1.60689 -0.62704,-1.67706 -0.45474,-1.72735 -0.29248,-1.75772 -0.14029,-1.76821 0.002,-1.75878 0.13393,-1.72946 0.25589,-1.68054 0.82227,-3.23114 1.12181,-3.22555 1.94154,-5.28322 1.26505,-4.12234 1.09848,-4.83877 2.34948,-12.2268 0.83178,-3.62707 1.00294,-3.86849 1.21081,-4.11656 1.45539,-4.37128 1.73656,-4.63258 2.03042,-4.8897 4.76962,-10.43312 16.46669,-34.23071 2.54693,-5.79743 2.36867,-5.74876 2.17281,-5.70624 1.96333,-5.67472 1.74024,-5.65422 1.50352,-5.6447 1.25317,-5.64619 0.98922,-5.65869 0.71164,-5.68219 0.42043,-5.71668 0.1156,-5.76219 -0.19229,-5.81018 -0.46685,-5.83128 -0.70018,-5.81912 -0.89228,-5.7737 -1.04317,-5.69505 -2.37413,-11.0211 -6.48483,-27.73426 -0.58517,-3.51432 -0.34932,-3.11854 -0.0786,-2.69337 0.22684,-2.23883 0.56714,-1.7549 0.94226,-1.24161 1.3522,-0.69893 1.78967,-0.13616 2.2156,0.39674 2.61694,0.88313 2.99368,1.32298 3.34582,1.71627 3.67334,2.06303 8.23087,4.98017 55.07456,34.62063 8.72993,5.74378 7.57331,5.1935 6.6101,4.7461 5.86548,4.41445 7.88027,6.25297 7.33855,6.11387 6.91039,6.08015 4.33588,4.04595 4.09576,4.04783 3.8225,4.05373 3.42038,4.04411 1.50591,2.01089 1.34114,1.99941 1.15495,1.9849 0.94735,1.96736 0.71831,1.9468 0.46786,1.9232 0.19699,1.89696 -0.0743,1.87547 -0.32791,1.86547 -0.56316,1.8672 -0.78003,1.88066 -0.97856,1.90586 -1.15872,1.94278 -2.78448,4.04326 -5.06864,6.62429 -7.63835,9.85297 -3.85625,5.21015 -3.67932,5.30396 -3.35877,5.32777 -2.97516,5.29726 -2.57656,5.22184 -2.16362,5.10161 -1.73636,4.93657 -1.30568,4.73073 -1.45668,6.73505 -0.94891,4.30559 -1.18226,4.20348 -0.74589,2.07561 -0.88491,2.06468 -1.04534,2.05787 -1.21643,2.05372 -1.39695,2.05203 -1.58686,2.05282 -1.7862,2.05611 -1.99493,2.06185 -2.21309,2.07009 -2.44064,2.0808 -2.67762,2.09399 -2.92395,2.10965 -6.54527,4.26747 -7.2386,4.31521 -29.97328,17.29734 -9.55962,6.12881 -8.09689,5.492 -13.81293,9.56695 -2.25824,1.17205 -2.10512,0.71608 -2.09548,0.27324 -1.06252,-0.0301 -2.17334,-0.39846 -2.26272,-0.85555 -2.38208,-1.32007 -2.52928,-1.79151 -2.63768,-2.25343 -2.62912,-2.68656 -2.49913,-3.0898 -1.16288,-1.68678 -1.08485,-1.77638 -0.99164,-1.86225 -0.88648,-1.94268 -1.51364,-4.04971 -3.29077,-9.99291 -0.74843,-1.78912 -0.8295,-1.66477 -0.93164,-1.51933 -1.04739,-1.37389 -1.17273,-1.23985 -1.30761,-1.1173 -1.45204,-1.00629 -1.60602,-0.90678 -1.76955,-0.81877 -1.94262,-0.7423 -4.44266,-1.30118 -5.21054,-1.14268 -8.72924,-1.78339 -5.94193,-1.51185 -2.88251,-0.92396 -2.76789,-1.06762 -2.61155,-1.23499 -2.41545,-1.42435 -2.2108,-1.60789 -2.02258,-1.76342 -1.85151,-1.89031 -1.69756,-1.98855 -1.56074,-2.05816 -2.77956,-4.21055 -6.85198,-11.38947 -1.11725,-1.46965 -1.16117,-1.29407 -1.22431,-1.09898 -1.30667,-0.88439 -1.40825,-0.65029 -1.52905,-0.39669 -1.66847,-0.12439 -1.80783,0.14098 -1.92527,0.36946 -2.01952,0.55928 -4.22903,1.53358 -12.54233,5.15031 -3.57581,1.01391 -1.60788,0.28967 -1.4715,0.12731 -1.32282,-0.0482 -1.16185,-0.23679 -0.98862,-0.43853 -0.80307,-0.65339 -0.60531,-0.88126 -0.39894,-1.11179 -0.19032,-1.32715 0.0199,-1.52554 0.23186,-1.70697 0.4454,-1.87146 0.66059,-2.01897 0.87742,-2.14955 1.09589,-2.26314 1.31599,-2.3598 1.53773,-2.43949 1.75955,-2.50388 1.97813,-2.5564 2.19309,-2.59751 2.40441,-2.62717 2.61208,-2.64543 2.81613,-2.65226 3.01653,-2.64766 3.2133,-2.63163 3.40642,-2.6042 3.59592,-2.56533 3.78129,-2.51839 3.96131,-2.47208 4.13575,-2.42777 4.30466,-2.38547 9.09374,-4.65207 9.70261,-4.50698 10.26698,-4.37795 10.76492,-4.28087 28.09904,-10.88779 11.28677,-4.69582 5.57205,-2.47167 5.49705,-2.57053 5.40015,-2.67923 5.28108,-2.79723 5.1398,-2.92452 4.97635,-3.06108 4.79071,-3.20693 4.58287,-3.36207 4.35284,-3.5265 4.10064,-3.7002 3.82623,-3.88321 3.53688,-4.06926 3.26855,-4.22739 3.03249,-4.34793 2.82868,-4.43087 2.65713,-4.47623 4.92859,-8.9382 6.91258,-12.80781 2.30165,-3.96129 2.32723,-3.76194 2.35156,-3.54655 2.3746,-3.31512 2.39637,-3.06765 2.41687,-2.80416 2.43609,-2.52462 2.45404,-2.22905 2.4707,-1.91745 2.48609,-1.5898 2.49844,-1.25035 2.49382,-0.93239 2.46563,-0.65168 2.41384,-0.40832 2.33844,-0.2023 2.23945,-0.0336 4.08752,0.28941 4.80287,0.76907 2.26178,0.4877 1.865,0.60752 1.83677,0.90146 2.17706,1.36954 6.71027,4.72604 7.55076,5.15413 6.24678,3.97451 7.22148,4.25981 8.15644,4.42554 21.62237,11.30749 3.99146,2.24256 3.72164,2.21856 3.38376,2.18698 2.97922,2.14857 2.54236,2.12169 2.10861,2.12529 1.67959,2.16026 1.25532,2.22658 0.83579,2.32425 0.421,2.4533 0.0109,2.61369 -0.39437,2.80544 -0.79493,3.02856 -1.19038,3.28227 -1.56666,3.53969 -1.90626,3.7672 -2.20808,3.96268 -2.4721,4.12613 -5.58513,8.61447 -6.18778,8.88387 -6.4885,8.89717 -6.60547,8.7001 -6.82501,8.40354 -3.54018,4.06462 -3.64948,3.95934 -3.77691,3.84369 -3.92249,3.71766 -4.0862,3.58125 -4.26791,3.43453 -4.45289,3.28416 -4.61399,3.14247 -4.74825,3.01076 -4.85568,2.88908 -4.93628,2.77737 -10.00703,5.25966 -10.00747,4.93289 -19.1848,9.11342 -32.62566,15.40924 -10.96548,5.26073 -2.36363,0.94934 -2.77426,0.81853 -2.25508,0.5572 -0.47476,0.3226 -0.0676,0.22538 0.19567,0.64533 1.39176,2.29929 0.99996,1.7796 1.07191,2.28332 1.05389,2.81613 0.98339,3.22185 0.87125,3.45531 0.71746,3.51648 0.52202,3.40537 0.39329,4.57922 0.34393,5.67936 0.32605,1.43406 0.25384,0.51335 0.32568,0.39128 0.88582,0.51635 1.22988,0.32856 2.57253,0.57946 2.2526,0.73451 2.57456,1.1296 2.55671,1.4337 2.18016,1.63225 0.83679,0.8576 0.60815,0.86765 0.33467,0.86452 0.0181,0.84795 -0.31611,0.81468 -0.64896,0.76221 -0.97997,0.69051 -1.30914,0.59955 -1.63646,0.48935 -1.96195,0.35991 -2.28559,0.21122 -2.60739,0.0433 -2.92736,-0.1439 -3.24371,-0.3494 -3.52188,-0.55514 -3.73044,-0.74471 -3.86827,-0.9175 -3.93535,-1.0735 -3.9317,-1.21272 -3.8573,-1.33517 -3.71216,-1.44083 -3.49628,-1.52972 -3.20966,-1.60183 -2.85401,-1.65785 -2.47649,-1.71673 -2.12894,-1.79935 -1.81407,-1.90676 -1.53183,-2.03899 -1.28226,-2.196 -1.06533,-2.37783 -0.88107,-2.58444 -0.72945,-2.81586 -0.61049,-3.07209 -0.98296,-6.99331 -0.75196,-8.08179 -0.57315,-9.03587 -0.63642,-15.04526 -0.66396,-22.10606 -0.20213,-11.51271 -4.5e-4,-11.51506 0.29109,-11.28698 0.28294,-5.48595 0.38943,-5.3427 1.08111,-10.26526 1.34363,-9.94583 2.12212,-14.9854 1.22886,-10.47846 0.89337,-11.19984 1.09564,-17.83186 0.4913,-6.01358 0.63516,-5.96131 0.82749,-5.85677 1.06832,-5.69999 1.35762,-5.49093 1.69542,-5.22964 2.07172,-4.9271 2.45675,-4.61623 2.84495,-4.30317 3.23631,-3.98791 3.63084,-3.67046 4.02854,-3.3508 4.4294,-3.02898 4.83344,-2.70493 5.24063,-2.37871 5.65101,-2.05028 6.05165,-1.73039 6.39465,-1.45887 6.66886,-1.24501 6.87428,-1.08879 28.17571,-3.9459 6.86965,-1.17239 6.66236,-1.36206 6.39451,-1.5948 6.10405,-1.80322 5.80201,-1.9678 5.48838,-2.08856 5.16315,-2.16546 4.82634,-2.19855 8.59584,-4.32097 7.10945,-3.927247 7.94303,-4.470253 2.10311,-1.007647 1.9242,-0.728917 1.80134,-0.427681 1.7345,-0.103938 1.72368,0.242311 1.76892,0.611067 1.87017,1.002329 2.01899,1.412048 2.15376,1.810765 2.24725,2.185456 2.29933,2.536062 2.31001,2.862585 2.27927,3.16502 2.20715,3.44337 2.0936,3.69765 1.93866,3.92782 1.7423,4.13393 1.50438,4.31663 1.22343,4.48241 0.89863,4.63473 0.52998,4.77363 0.11748,4.89912 -0.33886,5.01118 -0.83906,5.10984 -1.38309,5.19507 -1.97099,5.26689 -2.60272,5.32529 -3.27152,5.37008 -3.89612,5.39889 -4.42293,5.41017 -4.85101,5.40389 -5.18037,5.38006 -5.41099,5.33866 -11.11895,10.48291 -10.85671,10.10663 -5.08532,4.86844 -4.76152,4.72388 -4.4018,4.56536 -4.00688,4.39296 -3.5768,4.20663 -3.11153,4.00642 -2.61109,3.79229 -2.07545,3.56426 -1.50465,3.32233 -0.89866,3.06649 -0.26006,2.79733 0.35549,2.52737 0.89402,2.26876 1.35335,2.02199 1.73344,1.78707 2.03434,1.56399 2.25601,1.35276 2.39846,1.15338 2.4617,0.96583 2.44572,0.79013 4.55024,1.10916 5.35897,0.87339 2.22395,0.39534 0.6123,0.22915 0.23693,0.28905 -0.17013,0.37815 -0.60835,0.49617 -2.51906,1.39995 -6.55701,3.12344 -9.10522,4.34887 -7.04918,3.57842 -7.51222,4.07734 -7.66098,4.41979 -7.48941,4.58776 -6.99752,4.58125 -6.18542,4.40032 -5.15983,4.09707 -4.22907,3.82199 -3.44844,3.6021 -2.81794,3.43739 -2.33758,3.32786 -1.97058,3.25944 -1.59884,3.18688 -1.19862,3.1011 -0.76995,3.00212 -0.21533,1.45981 -0.0975,1.43011 0.0239,1.39875 0.14886,1.36575 0.27738,1.33109 0.40945,1.29479 0.54508,1.25682 0.68427,1.21721 0.82701,1.17595 0.97331,1.13304 1.12317,1.08846 1.27658,1.04225 v 0" /></g></g><g
       id="g320"><path
         id="path322"
         style="fill:none;stroke:#000000;stroke-width:0.80000001;stroke-linecap:square;stroke-linejoin:miter;stroke-miterlimit:10;stroke-dasharray:none;stroke-opacity:1"
         d="M 80.059366,71.707188 V 474.54719" /><path
         id="path324"
         style="fill:none;stroke:#000000;stroke-width:0.80000001;stroke-linecap:square;stroke-linejoin:miter;stroke-miterlimit:10;stroke-dasharray:none;stroke-opacity:1"
         d="M 812.88,71.707188 V 474.54719" /><path
         id="path326"
         style="fill:none;stroke:#000000;stroke-width:0.80000001;stroke-linecap:square;stroke-linejoin:miter;stroke-miterlimit:10;stroke-dasharray:none;stroke-opacity:1"
         d="M 80.059366,71.707188 H 812.88" /><path
         id="path328"
         style="fill:none;stroke:#000000;stroke-width:0.80000001;stroke-linecap:square;stroke-linejoin:miter;stroke-miterlimit:10;stroke-dasharray:none;stroke-opacity:1"
         d="M 80.059366,474.54719 H 812.88" /><path
         id="path330"
         style="fill:none;stroke:#1f77b4;stroke-width:3;stroke-linecap:square;stroke-linejoin:round;stroke-miterlimit:10;stroke-dasharray:none;stroke-opacity:1"
         d="m 102.55937,142.64626 h 25 25" /><text
         id="text334"
         style="font-variant:normal;font-weight:normal;font-size:24.90660095px;font-family:'Computer Modern';-inkscape-font-specification:CMR17;writing-mode:lr-tb;fill:#000000;fill-opacity:1;fill-rule:nonzero;stroke:none"
         transform="matrix(1,0,0,-1,172.55937,133.89626)"><tspan
           id="tspan332"
           y="0"
           x="0 15.641345 38.801674 64.2285 85.399117 98.101479 105.59837 122.85864">PP+MS-NN</tspan></text>
<path
         id="path336"
         style="fill:none;stroke:#ff7f0e;stroke-width:3;stroke-linecap:square;stroke-linejoin:round;stroke-miterlimit:10;stroke-dasharray:none;stroke-opacity:1"
         d="m 102.55937,107.80172 h 25 25" /><text
         id="text340"
         style="font-variant:normal;font-weight:normal;font-size:24.90660095px;font-family:'Computer Modern';-inkscape-font-specification:CMR17;writing-mode:lr-tb;fill:#000000;fill-opacity:1;fill-rule:nonzero;stroke:none"
         transform="matrix(1,0,0,-1,172.55937,99.051722)"><tspan
           id="tspan338"
           y="0"
           x="0 15.641345 38.801674 64.2285 85.399117 98.101479 105.59837 122.85864 147.63789 173.06473 188.0585 204.34741 222.42961">PP+MS-NN+FBGA</tspan></text>
</g></g></svg>