<?xml version="1.0" encoding="UTF-8" standalone="no"?>
<svg
   xmlns:dc="http://purl.org/dc/elements/1.1/"
   xmlns:cc="http://creativecommons.org/ns#"
   xmlns:rdf="http://www.w3.org/1999/02/22-rdf-syntax-ns#"
   xmlns:svg="http://www.w3.org/2000/svg"
   xmlns="http://www.w3.org/2000/svg"
   viewBox="0 0 1093.4399 941.52002"
   height="941.52002"
   width="1093.4399"
   xml:space="preserve"
   id="svg2"
   version="1.1"><metadata
     id="metadata8"><rdf:RDF><cc:Work
         rdf:about=""><dc:format>image/svg+xml</dc:format><dc:type
           rdf:resource="http://purl.org/dc/dcmitype/StillImage" /></cc:Work></rdf:RDF></metadata><defs
     id="defs6"><clipPath
       id="clipPath22"
       clipPathUnits="userSpaceOnUse"><path
         id="path20"
         d="M 99.640098,537.99433 H 812.88 V 698.94 H 99.640098 Z" /></clipPath><clipPath
       id="clipPath36"
       clipPathUnits="userSpaceOnUse"><path
         id="path34"
         d="M 99.640098,537.99433 H 812.88 V 698.94 H 99.640098 Z" /></clipPath><clipPath
       id="clipPath50"
       clipPathUnits="userSpaceOnUse"><path
         id="path48"
         d="M 99.640098,537.99433 H 812.88 V 698.94 H 99.640098 Z" /></clipPath><clipPath
       id="clipPath64"
       clipPathUnits="userSpaceOnUse"><path
         id="path62"
         d="M 99.640098,537.99433 H 812.88 V 698.94 H 99.640098 Z" /></clipPath><clipPath
       id="clipPath78"
       clipPathUnits="userSpaceOnUse"><path
         id="path76"
         d="M 99.640098,537.99433 H 812.88 V 698.94 H 99.640098 Z" /></clipPath><clipPath
       id="clipPath96"
       clipPathUnits="userSpaceOnUse"><path
         id="path94"
         d="M 99.640098,537.99433 H 812.88 V 698.94 H 99.640098 Z" /></clipPath><clipPath
       id="clipPath114"
       clipPathUnits="userSpaceOnUse"><path
         id="path112"
         d="M 99.640098,537.99433 H 812.88 V 698.94 H 99.640098 Z" /></clipPath><clipPath
       id="clipPath140"
       clipPathUnits="userSpaceOnUse"><path
         id="path138"
         d="M 99.640098,537.99433 H 812.88 V 698.94 H 99.640098 Z" /></clipPath><clipPath
       id="clipPath150"
       clipPathUnits="userSpaceOnUse"><path
         id="path148"
         d="M 99.640098,537.99433 H 812.88 V 698.94 H 99.640098 Z" /></clipPath><clipPath
       id="clipPath172"
       clipPathUnits="userSpaceOnUse"><path
         id="path170"
         d="M 99.640098,337.84717 H 812.88 V 498.79283 H 99.640098 Z" /></clipPath><clipPath
       id="clipPath186"
       clipPathUnits="userSpaceOnUse"><path
         id="path184"
         d="M 99.640098,337.84717 H 812.88 V 498.79283 H 99.640098 Z" /></clipPath><clipPath
       id="clipPath200"
       clipPathUnits="userSpaceOnUse"><path
         id="path198"
         d="M 99.640098,337.84717 H 812.88 V 498.79283 H 99.640098 Z" /></clipPath><clipPath
       id="clipPath214"
       clipPathUnits="userSpaceOnUse"><path
         id="path212"
         d="M 99.640098,337.84717 H 812.88 V 498.79283 H 99.640098 Z" /></clipPath><clipPath
       id="clipPath228"
       clipPathUnits="userSpaceOnUse"><path
         id="path226"
         d="M 99.640098,337.84717 H 812.88 V 498.79283 H 99.640098 Z" /></clipPath><clipPath
       id="clipPath246"
       clipPathUnits="userSpaceOnUse"><path
         id="path244"
         d="M 99.640098,337.84717 H 812.88 V 498.79283 H 99.640098 Z" /></clipPath><clipPath
       id="clipPath264"
       clipPathUnits="userSpaceOnUse"><path
         id="path262"
         d="M 99.640098,337.84717 H 812.88 V 498.79283 H 99.640098 Z" /></clipPath><clipPath
       id="clipPath302"
       clipPathUnits="userSpaceOnUse"><path
         id="path300"
         d="M 99.640098,337.84717 H 812.88 V 498.79283 H 99.640098 Z" /></clipPath><clipPath
       id="clipPath312"
       clipPathUnits="userSpaceOnUse"><path
         id="path310"
         d="M 99.640098,337.84717 H 812.88 V 498.79283 H 99.640098 Z" /></clipPath><clipPath
       id="clipPath334"
       clipPathUnits="userSpaceOnUse"><path
         id="path332"
         d="M 99.640098,137.7 H 812.88 V 298.64567 H 99.640098 Z" /></clipPath><clipPath
       id="clipPath352"
       clipPathUnits="userSpaceOnUse"><path
         id="path350"
         d="M 99.640098,137.7 H 812.88 V 298.64567 H 99.640098 Z" /></clipPath><clipPath
       id="clipPath370"
       clipPathUnits="userSpaceOnUse"><path
         id="path368"
         d="M 99.640098,137.7 H 812.88 V 298.64567 H 99.640098 Z" /></clipPath><clipPath
       id="clipPath388"
       clipPathUnits="userSpaceOnUse"><path
         id="path386"
         d="M 99.640098,137.7 H 812.88 V 298.64567 H 99.640098 Z" /></clipPath><clipPath
       id="clipPath410"
       clipPathUnits="userSpaceOnUse"><path
         id="path408"
         d="M 99.640098,137.7 H 812.88 V 298.64567 H 99.640098 Z" /></clipPath><clipPath
       id="clipPath428"
       clipPathUnits="userSpaceOnUse"><path
         id="path426"
         d="M 99.640098,137.7 H 812.88 V 298.64567 H 99.640098 Z" /></clipPath><clipPath
       id="clipPath446"
       clipPathUnits="userSpaceOnUse"><path
         id="path444"
         d="M 99.640098,137.7 H 812.88 V 298.64567 H 99.640098 Z" /></clipPath><clipPath
       id="clipPath484"
       clipPathUnits="userSpaceOnUse"><path
         id="path482"
         d="M 99.640098,137.7 H 812.88 V 298.64567 H 99.640098 Z" /></clipPath><clipPath
       id="clipPath494"
       clipPathUnits="userSpaceOnUse"><path
         id="path492"
         d="M 99.640098,137.7 H 812.88 V 298.64567 H 99.640098 Z" /></clipPath></defs><g
     transform="matrix(1.3333333,0,0,-1.3333333,0,941.52)"
     id="g10"><path
       id="path12"
       style="fill:#ffffff;fill-opacity:1;fill-rule:nonzero;stroke:none"
       d="M 0,0 H 820.08 V 706.14 H 0 Z" /><path
       id="path14"
       style="fill:#ffffff;fill-opacity:1;fill-rule:nonzero;stroke:none"
       d="M 99.640098,537.99434 H 812.88 V 698.94 H 99.640098 Z" /><g
       id="g16"><g
         clip-path="url(#clipPath22)"
         id="g18"><path
           id="path24"
           style="fill:none;stroke:#b0b0b0;stroke-width:0.80000001;stroke-linecap:square;stroke-linejoin:round;stroke-miterlimit:10;stroke-dasharray:none;stroke-opacity:1"
           d="M 132.06009,537.99434 V 698.94" /></g></g><g
       id="g26"><path
         id="path28"
         style="fill:#000000;fill-opacity:1;fill-rule:nonzero;stroke:#000000;stroke-width:0.80000001;stroke-linecap:butt;stroke-linejoin:round;stroke-miterlimit:10;stroke-dasharray:none;stroke-opacity:1"
         d="m 132.06009,537.99434 v -3.5" /></g><g
       id="g30"><g
         clip-path="url(#clipPath36)"
         id="g32"><path
           id="path38"
           style="fill:none;stroke:#b0b0b0;stroke-width:0.80000001;stroke-linecap:square;stroke-linejoin:round;stroke-miterlimit:10;stroke-dasharray:none;stroke-opacity:1"
           d="M 307.36267,537.99434 V 698.94" /></g></g><g
       id="g40"><path
         id="path42"
         style="fill:#000000;fill-opacity:1;fill-rule:nonzero;stroke:#000000;stroke-width:0.80000001;stroke-linecap:butt;stroke-linejoin:round;stroke-miterlimit:10;stroke-dasharray:none;stroke-opacity:1"
         d="m 307.36267,537.99434 v -3.5" /></g><g
       id="g44"><g
         clip-path="url(#clipPath50)"
         id="g46"><path
           id="path52"
           style="fill:none;stroke:#b0b0b0;stroke-width:0.80000001;stroke-linecap:square;stroke-linejoin:round;stroke-miterlimit:10;stroke-dasharray:none;stroke-opacity:1"
           d="M 482.66524,537.99434 V 698.94" /></g></g><g
       id="g54"><path
         id="path56"
         style="fill:#000000;fill-opacity:1;fill-rule:nonzero;stroke:#000000;stroke-width:0.80000001;stroke-linecap:butt;stroke-linejoin:round;stroke-miterlimit:10;stroke-dasharray:none;stroke-opacity:1"
         d="m 482.66524,537.99434 v -3.5" /></g><g
       id="g58"><g
         clip-path="url(#clipPath64)"
         id="g60"><path
           id="path66"
           style="fill:none;stroke:#b0b0b0;stroke-width:0.80000001;stroke-linecap:square;stroke-linejoin:round;stroke-miterlimit:10;stroke-dasharray:none;stroke-opacity:1"
           d="M 657.96782,537.99434 V 698.94" /></g></g><g
       id="g68"><path
         id="path70"
         style="fill:#000000;fill-opacity:1;fill-rule:nonzero;stroke:#000000;stroke-width:0.80000001;stroke-linecap:butt;stroke-linejoin:round;stroke-miterlimit:10;stroke-dasharray:none;stroke-opacity:1"
         d="m 657.96782,537.99434 v -3.5" /></g><g
       id="g72"><g
         clip-path="url(#clipPath78)"
         id="g74"><path
           id="path80"
           style="fill:none;stroke:#b0b0b0;stroke-width:0.80000001;stroke-linecap:square;stroke-linejoin:round;stroke-miterlimit:10;stroke-dasharray:none;stroke-opacity:1"
           d="M 99.640098,544.76368 H 812.88" /></g></g><g
       id="g82"><path
         id="path84"
         style="fill:#000000;fill-opacity:1;fill-rule:nonzero;stroke:#000000;stroke-width:0.80000001;stroke-linecap:butt;stroke-linejoin:round;stroke-miterlimit:10;stroke-dasharray:none;stroke-opacity:1"
         d="m 99.640098,544.76368 h -3.5" /><text
         id="text88"
         style="font-variant:normal;font-weight:normal;font-size:26.89912796px;font-family:'Computer Modern';-inkscape-font-specification:CMR17;writing-mode:lr-tb;fill:#000000;fill-opacity:1;fill-rule:nonzero;stroke:none"
         transform="matrix(1,0,0,-1,48.915637,535.42371)"><tspan
           id="tspan86"
           y="0"
           x="0 12.3198 19.017683 31.337484">2.00</tspan></text>
</g><g
       id="g90"><g
         clip-path="url(#clipPath96)"
         id="g92"><path
           id="path98"
           style="fill:none;stroke:#b0b0b0;stroke-width:0.80000001;stroke-linecap:square;stroke-linejoin:round;stroke-miterlimit:10;stroke-dasharray:none;stroke-opacity:1"
           d="M 99.640098,600.8819 H 812.88" /></g></g><g
       id="g100"><path
         id="path102"
         style="fill:#000000;fill-opacity:1;fill-rule:nonzero;stroke:#000000;stroke-width:0.80000001;stroke-linecap:butt;stroke-linejoin:round;stroke-miterlimit:10;stroke-dasharray:none;stroke-opacity:1"
         d="m 99.640098,600.8819 h -3.5" /><text
         id="text106"
         style="font-variant:normal;font-weight:normal;font-size:26.89912796px;font-family:'Computer Modern';-inkscape-font-specification:CMR17;writing-mode:lr-tb;fill:#000000;fill-opacity:1;fill-rule:nonzero;stroke:none"
         transform="matrix(1,0,0,-1,48.915637,591.54192)"><tspan
           id="tspan104"
           y="0"
           x="0 12.3198 19.017683 31.337484">3.00</tspan></text>
</g><g
       id="g108"><g
         clip-path="url(#clipPath114)"
         id="g110"><path
           id="path116"
           style="fill:none;stroke:#b0b0b0;stroke-width:0.80000001;stroke-linecap:square;stroke-linejoin:round;stroke-miterlimit:10;stroke-dasharray:none;stroke-opacity:1"
           d="M 99.640098,657.00012 H 812.88" /></g></g><g
       id="g118"><path
         id="path120"
         style="fill:#000000;fill-opacity:1;fill-rule:nonzero;stroke:#000000;stroke-width:0.80000001;stroke-linecap:butt;stroke-linejoin:round;stroke-miterlimit:10;stroke-dasharray:none;stroke-opacity:1"
         d="m 99.640098,657.00012 h -3.5" /><text
         id="text124"
         style="font-variant:normal;font-weight:normal;font-size:26.89912796px;font-family:'Computer Modern';-inkscape-font-specification:CMR17;writing-mode:lr-tb;fill:#000000;fill-opacity:1;fill-rule:nonzero;stroke:none"
         transform="matrix(1,0,0,-1,48.915637,647.66014)"><tspan
           id="tspan122"
           y="0"
           x="0 12.3198 19.017683 31.337484">4.00</tspan></text>
<text
         id="text128"
         style="font-style:italic;font-variant:normal;font-weight:normal;font-size:26.89912796px;font-family:'Computer Modern';-inkscape-font-specification:CMMI12;writing-mode:lr-tb;fill:#000000;fill-opacity:1;fill-rule:nonzero;stroke:none"
         transform="matrix(0,1,1,0,38.213354,579.45697)"><tspan
           id="tspan126"
           y="0"
           x="0">v</tspan></text>
<text
         id="text132"
         style="font-variant:normal;font-weight:normal;font-size:26.89912796px;font-family:'Computer Modern';-inkscape-font-specification:CMR17;writing-mode:lr-tb;fill:#000000;fill-opacity:1;fill-rule:nonzero;stroke:none"
         transform="matrix(0,1,1,0,38.213354,601.27595)"><tspan
           id="tspan130"
           y="0"
           x="0 6.6978831 27.46401 39.78381 49.440598">[m/s]</tspan></text>
</g><g
       id="g134"><g
         clip-path="url(#clipPath140)"
         id="g136"><path
           id="path142"
           style="fill:none;stroke:#1f77b4;stroke-width:3;stroke-linecap:square;stroke-linejoin:round;stroke-miterlimit:10;stroke-dasharray:none;stroke-opacity:1"
           d="m 132.06009,552.73772 5.19239,6.09801 3.8943,4.4443 3.89429,4.81441 3.24525,4.292 4.54334,4.19541 3.89429,2.19259 0.64905,0.0631 4.54335,-0.9368 3.89429,-0.36382 1.2981,-1.28412 3.24524,-3.42264 5.19239,-3.75526 3.24525,-1.79628 8.43763,-2.72613 0.64905,0.0602 3.8943,3.48275 0.64905,0.0883 6.49049,-1.9013 0.64905,0.0116 3.89429,1.6689 0.64905,0.44138 3.89429,4.26059 4.54334,4.11239 5.1924,6.7404 3.89429,4.08893 5.84144,2.31383 5.84144,2.05917 3.24525,1.19697 7.13953,-0.64304 2.5962,-0.15345 5.19239,-2.14382 3.8943,-0.39334 0.64904,-0.29757 6.49049,-4.13905 1.94715,-1.17215 5.84144,-6.92775 3.8943,-5.19522 0.64905,-0.5396 3.24524,-1.04191 0.64905,-0.4238 7.13954,-7.51734 1.29809,-1.46929 3.24525,-4.34099 3.24525,-0.88104 0.64904,0.12777 3.24525,2.91564 0.64905,-0.48476 2.59619,-2.82706 3.8943,-0.84952 3.24524,2.09954 4.54334,4.33886 5.1924,5.85158 3.24524,3.67949 3.89429,4.08078 3.8943,5.5993 5.84144,6.19153 3.89429,4.75066 2.5962,4.45088 1.2981,2.17649 6.49049,6.78954 4.54334,5.64696 1.2981,0.95817 5.19239,3.28443 5.84144,2.2843 5.84144,-0.74944 5.19239,0.69544 3.24525,-0.53288 2.59619,-0.44609 1.2981,-1.05555 4.54334,-4.00614 5.19239,-2.16726 1.2981,-1.15195 3.8943,-3.87664 1.94714,-0.73932 4.54335,-1.70064 4.54334,-1.93228 5.84144,-1.28027 3.24524,-0.60964 4.54335,-2.63068 0.64905,-0.22243 8.43763,-0.54026 6.49049,3.18913 4.54334,2.67598 9.73574,8.06772 1.2981,1.3599 5.19239,5.76981 9.08668,9.43537 1.2981,1.21014 6.49049,4.91144 7.78859,6.95468 10.38478,10.10567 3.8943,3.69137 3.24524,3.03957 0.64905,0.39215 5.84144,2.20997 7.13954,0.3468 1.2981,-0.17435 6.49049,-1.21534 0.64904,-0.35919 5.84145,-5.05428 0.64904,-0.40467 7.13954,-0.98018 6.49049,-4.85331 10.38479,-10.26684 1.94714,-1.88592 1.2981,-0.33906 4.54334,-0.83634 5.84145,0.79646 6.49048,-2.48215 5.1924,-2.86458 5.84144,-3.96245 5.84144,-1.99141 4.54334,-3.20752 7.13954,-1.92061 5.84144,-2.70228 5.19239,-1.2997 5.84144,-2.52124 4.54334,-0.56759 3.24525,0.2611 3.24524,0.17584 5.19239,0.002 4.54335,-0.10314 4.54334,0.42758 5.19239,-1.86081 5.19239,0.0987 0.64905,-0.21541 5.1924,-4.7422 5.19239,-3.16675 5.19239,0.42177 3.24524,1.19998 1.94715,0.73572 0.64905,0.47609 3.89429,3.68695 0.64905,0.44611 4.54334,-1.56113 5.1924,-0.45433 5.84144,1.65842 4.54334,0.38809 1.94715,-0.44361 4.54334,-1.16928 4.54334,-2.13087 5.19239,-4.35657 0.64905,-0.32358 4.54335,-0.90582 1.29809,-1.22562 3.8943,-3.95588 1.94714,-2.6772 3.8943,-5.35436 3.89429,-4.92762 1.2981,-2.6384 4.54334,-9.73567 2.5962,-5.14416 2.59619,-4.76918 0.64905,-0.89858 3.8943,-3.73843 2.59619,-3.19768 0.64905,-0.60815 2.5962,-1.16944 2.59619,-0.48187 1.2981,-0.32002 2.5962,-2.30722 0.64904,-0.13303 3.24525,1.21601 2.5962,0.60726 0.64904,0.27007 5.1924,3.60952 1.29809,0.95279 v 0" /></g></g><g
       id="g144"><g
         clip-path="url(#clipPath150)"
         id="g146"><path
           id="path152"
           style="fill:none;stroke:#ff7f0e;stroke-width:3;stroke-linecap:square;stroke-linejoin:round;stroke-miterlimit:10;stroke-dasharray:none;stroke-opacity:1"
           d="m 132.06009,578.30815 7.78859,10.82983 1.2981,1.84195 4.54334,8.76346 5.19239,6.6204 5.19239,2.7591 1.2981,0.0986 3.8943,0.0896 0.64905,-0.22658 5.84144,-6.43045 5.19239,-4.93943 4.54334,-6.73685 1.2981,-0.95819 4.54334,-3.05974 1.94715,-0.33385 3.24524,-0.5465 3.24525,-1.07944 1.2981,-0.0761 3.89429,-0.13396 3.89429,-1.80625 0.64905,-0.0318 4.54334,1.2988 3.8943,2.38146 0.64905,0.67867 5.19239,7.1713 5.84144,9.09061 3.24524,5.2845 1.94715,2.29268 3.8943,4.46181 0.64904,0.4548 5.1924,1.67372 5.19239,-0.043 8.43763,-7.50056 3.24525,-3.01792 1.94715,-2.51402 3.89429,-5.29574 5.19239,-10.93914 0.64905,-0.9733 4.54334,-5.50446 2.5962,-3.49014 0.64905,-0.44975 4.54334,-1.65593 0.64905,-0.35594 3.24524,-2.9682 0.64905,-0.29996 3.8943,0.10768 0.64905,-0.51397 2.59619,-2.7587 0.64905,-0.31216 3.8943,-0.82955 1.29809,-0.66321 2.5962,-1.41575 5.84144,0.0619 0.64905,-0.0311 0.64905,0.17627 9.08668,4.33131 3.8943,4.26782 1.29809,0.88138 3.24525,2.02947 5.19239,6.35585 3.89429,4.29296 5.84145,7.66189 11.03383,13.35759 4.54334,6.11288 5.19239,7.73861 14.92813,19.81809 2.59619,3.22466 5.84144,5.49339 8.43764,3.9601 0.64905,0.10183 7.13954,-1.9064 1.2981,-1.57007 4.54334,-6.03467 1.2981,-0.73769 5.84144,-3.13442 6.49049,-6.75848 0.64905,-0.87118 5.19239,-8.57689 1.2981,-1.44132 5.19239,-5.20894 6.49049,-4.73899 4.54334,-2.98922 5.19239,0.36777 3.89429,-0.91859 1.94715,-0.37108 7.78859,-1.23081 1.94715,-0.28966 6.49049,3.46201 3.24524,1.97157 7.78859,7.18436 3.89429,3.89876 6.49049,8.1055 5.84144,6.0849 7.13954,8.63919 5.84144,6.47341 9.08669,7.4107 5.19239,4.44367 15.57717,9.31066 5.84144,3.58815 9.08669,2.89508 9.73573,2.18043 4.54335,0.83444 7.78858,-2.16163 10.38479,-6.67796 9.73573,-6.61393 2.5962,-1.71191 0.64905,-0.56506 7.78858,-9.02399 0.64905,-1.04353 7.78859,-16.07019 4.54334,-8.7395 1.2981,-1.81391 5.19239,-6.50863 5.84144,-4.02292 5.84144,-1.60408 1.2981,0.16161 3.8943,0.70987 0.64904,-0.0955 3.8943,-1.92749 0.64905,-0.14471 5.19239,-0.22742 5.84144,-1.35592 0.64905,0.14881 4.54334,2.45607 2.5962,0.66389 2.59619,0.62782 1.2981,1.08388 9.08669,8.45533 2.59619,2.35552 6.49049,5.49736 5.19239,4.05808 6.49049,7.22469 7.13954,5.93274 8.43764,5.94242 4.54334,2.88292 0.64905,0.26393 7.13954,1.35873 0.64905,-0.0244 5.84144,-1.40317 0.64905,-0.34537 6.49049,-7.08653 7.78858,-4.27435 0.64905,-0.56279 5.84144,-6.82477 3.8943,-8.39173 3.24524,-7.2635 6.49049,-17.07864 5.19239,-14.23605 4.54335,-9.85523 1.29809,-2.27205 v 0" /></g></g><g
       id="g154"><path
         id="path156"
         style="fill:none;stroke:#000000;stroke-width:0.80000001;stroke-linecap:square;stroke-linejoin:miter;stroke-miterlimit:10;stroke-dasharray:none;stroke-opacity:1"
         d="M 99.640098,537.99434 V 698.94" /><path
         id="path158"
         style="fill:none;stroke:#000000;stroke-width:0.80000001;stroke-linecap:square;stroke-linejoin:miter;stroke-miterlimit:10;stroke-dasharray:none;stroke-opacity:1"
         d="M 812.88,537.99434 V 698.94" /><path
         id="path160"
         style="fill:none;stroke:#000000;stroke-width:0.80000001;stroke-linecap:square;stroke-linejoin:miter;stroke-miterlimit:10;stroke-dasharray:none;stroke-opacity:1"
         d="M 99.640098,537.99434 H 812.88" /><path
         id="path162"
         style="fill:none;stroke:#000000;stroke-width:0.80000001;stroke-linecap:square;stroke-linejoin:miter;stroke-miterlimit:10;stroke-dasharray:none;stroke-opacity:1"
         d="M 99.640098,698.94 H 812.88" /><path
         id="path164"
         style="fill:#ffffff;fill-opacity:1;fill-rule:nonzero;stroke:none"
         d="M 99.640098,337.84717 H 812.88 V 498.79283 H 99.640098 Z" /></g><g
       id="g166"><g
         clip-path="url(#clipPath172)"
         id="g168"><path
           id="path174"
           style="fill:none;stroke:#b0b0b0;stroke-width:0.80000001;stroke-linecap:square;stroke-linejoin:round;stroke-miterlimit:10;stroke-dasharray:none;stroke-opacity:1"
           d="M 132.06009,337.84717 V 498.79283" /></g></g><g
       id="g176"><path
         id="path178"
         style="fill:#000000;fill-opacity:1;fill-rule:nonzero;stroke:#000000;stroke-width:0.80000001;stroke-linecap:butt;stroke-linejoin:round;stroke-miterlimit:10;stroke-dasharray:none;stroke-opacity:1"
         d="m 132.06009,337.84717 v -3.5" /></g><g
       id="g180"><g
         clip-path="url(#clipPath186)"
         id="g182"><path
           id="path188"
           style="fill:none;stroke:#b0b0b0;stroke-width:0.80000001;stroke-linecap:square;stroke-linejoin:round;stroke-miterlimit:10;stroke-dasharray:none;stroke-opacity:1"
           d="M 307.36267,337.84717 V 498.79283" /></g></g><g
       id="g190"><path
         id="path192"
         style="fill:#000000;fill-opacity:1;fill-rule:nonzero;stroke:#000000;stroke-width:0.80000001;stroke-linecap:butt;stroke-linejoin:round;stroke-miterlimit:10;stroke-dasharray:none;stroke-opacity:1"
         d="m 307.36267,337.84717 v -3.5" /></g><g
       id="g194"><g
         clip-path="url(#clipPath200)"
         id="g196"><path
           id="path202"
           style="fill:none;stroke:#b0b0b0;stroke-width:0.80000001;stroke-linecap:square;stroke-linejoin:round;stroke-miterlimit:10;stroke-dasharray:none;stroke-opacity:1"
           d="M 482.66524,337.84717 V 498.79283" /></g></g><g
       id="g204"><path
         id="path206"
         style="fill:#000000;fill-opacity:1;fill-rule:nonzero;stroke:#000000;stroke-width:0.80000001;stroke-linecap:butt;stroke-linejoin:round;stroke-miterlimit:10;stroke-dasharray:none;stroke-opacity:1"
         d="m 482.66524,337.84717 v -3.5" /></g><g
       id="g208"><g
         clip-path="url(#clipPath214)"
         id="g210"><path
           id="path216"
           style="fill:none;stroke:#b0b0b0;stroke-width:0.80000001;stroke-linecap:square;stroke-linejoin:round;stroke-miterlimit:10;stroke-dasharray:none;stroke-opacity:1"
           d="M 657.96782,337.84717 V 498.79283" /></g></g><g
       id="g218"><path
         id="path220"
         style="fill:#000000;fill-opacity:1;fill-rule:nonzero;stroke:#000000;stroke-width:0.80000001;stroke-linecap:butt;stroke-linejoin:round;stroke-miterlimit:10;stroke-dasharray:none;stroke-opacity:1"
         d="m 657.96782,337.84717 v -3.5" /></g><g
       id="g222"><g
         clip-path="url(#clipPath228)"
         id="g224"><path
           id="path230"
           style="fill:none;stroke:#b0b0b0;stroke-width:0.80000001;stroke-linecap:square;stroke-linejoin:round;stroke-miterlimit:10;stroke-dasharray:none;stroke-opacity:1"
           d="M 99.640098,382.86824 H 812.88" /></g></g><g
       id="g232"><path
         id="path234"
         style="fill:#000000;fill-opacity:1;fill-rule:nonzero;stroke:#000000;stroke-width:0.80000001;stroke-linecap:butt;stroke-linejoin:round;stroke-miterlimit:10;stroke-dasharray:none;stroke-opacity:1"
         d="m 99.640098,382.86824 h -3.5" /><text
         id="text238"
         style="font-variant:normal;font-weight:normal;font-size:26.89912796px;font-family:'Computer Modern';-inkscape-font-specification:CMR17;writing-mode:lr-tb;fill:#000000;fill-opacity:1;fill-rule:nonzero;stroke:none"
         transform="matrix(1,0,0,-1,40.795134,373.52826)"><tspan
           id="tspan236"
           y="0"
           x="0 8.0966377 20.416439 27.114321 39.43412">-2.50</tspan></text>
</g><g
       id="g240"><g
         clip-path="url(#clipPath246)"
         id="g242"><path
           id="path248"
           style="fill:none;stroke:#b0b0b0;stroke-width:0.80000001;stroke-linecap:square;stroke-linejoin:round;stroke-miterlimit:10;stroke-dasharray:none;stroke-opacity:1"
           d="M 99.640098,432.11228 H 812.88" /></g></g><g
       id="g250"><path
         id="path252"
         style="fill:#000000;fill-opacity:1;fill-rule:nonzero;stroke:#000000;stroke-width:0.80000001;stroke-linecap:butt;stroke-linejoin:round;stroke-miterlimit:10;stroke-dasharray:none;stroke-opacity:1"
         d="m 99.640098,432.11228 h -3.5" /><text
         id="text256"
         style="font-variant:normal;font-weight:normal;font-size:26.89912796px;font-family:'Computer Modern';-inkscape-font-specification:CMR17;writing-mode:lr-tb;fill:#000000;fill-opacity:1;fill-rule:nonzero;stroke:none"
         transform="matrix(1,0,0,-1,48.915637,422.7723)"><tspan
           id="tspan254"
           y="0"
           x="0 12.3198 19.017683 31.337484">0.00</tspan></text>
</g><g
       id="g258"><g
         clip-path="url(#clipPath264)"
         id="g260"><path
           id="path266"
           style="fill:none;stroke:#b0b0b0;stroke-width:0.80000001;stroke-linecap:square;stroke-linejoin:round;stroke-miterlimit:10;stroke-dasharray:none;stroke-opacity:1"
           d="M 99.640098,481.35632 H 812.88" /></g></g><g
       id="g268"><path
         id="path270"
         style="fill:#000000;fill-opacity:1;fill-rule:nonzero;stroke:#000000;stroke-width:0.80000001;stroke-linecap:butt;stroke-linejoin:round;stroke-miterlimit:10;stroke-dasharray:none;stroke-opacity:1"
         d="m 99.640098,481.35632 h -3.5" /><text
         id="text274"
         style="font-variant:normal;font-weight:normal;font-size:26.89912796px;font-family:'Computer Modern';-inkscape-font-specification:CMR17;writing-mode:lr-tb;fill:#000000;fill-opacity:1;fill-rule:nonzero;stroke:none"
         transform="matrix(1,0,0,-1,48.915637,472.01634)"><tspan
           id="tspan272"
           y="0"
           x="0 12.3198 19.017683 31.337484">2.50</tspan></text>
<text
         id="text278"
         style="font-style:italic;font-variant:normal;font-weight:normal;font-size:26.89912796px;font-family:'Computer Modern';-inkscape-font-specification:CMMI12;writing-mode:lr-tb;fill:#000000;fill-opacity:1;fill-rule:nonzero;stroke:none"
         transform="matrix(0,1,1,0,30.092851,369.19164)"><tspan
           id="tspan276"
           y="0"
           x="0">a</tspan></text>
<text
         id="text282"
         style="font-style:italic;font-variant:normal;font-weight:normal;font-size:18.82930756px;font-family:'Computer Modern';-inkscape-font-specification:CMMI12;writing-mode:lr-tb;fill:#000000;fill-opacity:1;fill-rule:nonzero;stroke:none"
         transform="matrix(0,1,1,0,34.127708,383.01775)"><tspan
           id="tspan280"
           y="0"
           x="0">x</tspan></text>
<text
         id="text286"
         style="font-variant:normal;font-weight:normal;font-size:26.89912796px;font-family:'Computer Modern';-inkscape-font-specification:CMR17;writing-mode:lr-tb;fill:#000000;fill-opacity:1;fill-rule:nonzero;stroke:none"
         transform="matrix(0,1,1,0,30.092851,402.11336)"><tspan
           id="tspan284"
           y="0"
           x="0 6.6978831 27.46401 39.78381">[m/s</tspan></text>
<text
         id="text290"
         style="font-variant:normal;font-weight:normal;font-size:18.82930756px;font-family:'Computer Modern';-inkscape-font-specification:CMR17;writing-mode:lr-tb;fill:#000000;fill-opacity:1;fill-rule:nonzero;stroke:none"
         transform="matrix(0,1,1,0,20.331376,451.59961)"><tspan
           id="tspan288"
           y="0"
           x="0">2</tspan></text>
<text
         id="text294"
         style="font-variant:normal;font-weight:normal;font-size:26.89912796px;font-family:'Computer Modern';-inkscape-font-specification:CMR17;writing-mode:lr-tb;fill:#000000;fill-opacity:1;fill-rule:nonzero;stroke:none"
         transform="matrix(0,1,1,0,30.092851,460.73319)"><tspan
           id="tspan292"
           y="0"
           x="0">]</tspan></text>
</g><g
       id="g296"><g
         clip-path="url(#clipPath302)"
         id="g298"><path
           id="path304"
           style="fill:none;stroke:#1f77b4;stroke-width:3;stroke-linecap:square;stroke-linejoin:round;stroke-miterlimit:10;stroke-dasharray:none;stroke-opacity:1"
           d="m 132.06009,469.68705 3.8943,3.6661 3.24524,1.58995 0.64905,0.12996 3.89429,-2.81437 1.94715,-4.44809 2.5962,-6.10622 5.19239,-19.06547 3.24524,-12.83659 1.2981,-3.71511 3.24525,-8.39867 0.64905,-1.19033 3.89429,-3.79021 1.94715,-1.06081 1.94714,-0.99747 0.64905,-0.57212 4.54335,-5.29744 0.64904,-1.01856 3.24525,-6.16386 0.64905,-0.15862 3.89429,-0.19638 0.64905,0.3395 3.24524,5.61776 0.64905,1.40145 3.8943,11.31055 0.64905,3.12958 3.89429,22.26286 2.5962,12.90087 0.64905,2.42882 4.54334,10.04946 3.24524,9.14277 0.64905,1.41597 4.54334,7.4152 4.54335,-3.73832 9.08668,-39.03426 0.64905,-1.80491 4.54334,-6.73853 0.64905,-0.0726 4.54335,3.62239 4.54334,4.47886 0.64905,0.28336 4.54334,-2.23603 4.54334,-9.19896 1.94715,-4.65206 4.54334,-10.86797 3.8943,-8.78819 3.24524,-6.4919 5.19239,-3.42865 2.5962,-2.56241 1.94715,-1.95915 0.64905,-1.15312 3.89429,-9.83605 3.89429,-8.31108 0.64905,0.37832 3.24525,4.53888 0.64904,1.83306 3.8943,21.04842 4.54334,22.2947 1.94715,9.0943 3.24524,18.75933 3.8943,14.02749 3.24524,4.36272 3.24525,-0.29972 0.64905,-0.19787 4.54334,-6.15833 3.24524,-3.88511 0.64905,-0.51225 3.8943,5.33356 0.64904,1.19529 3.24525,8.01158 0.64905,0.78472 5.19239,2.85744 2.5962,-0.13396 1.94714,-0.12805 1.2981,-0.76992 3.24525,-2.2294 5.19239,-4.18475 5.19239,-8.91807 1.2981,-3.22388 5.84144,-15.6869 5.19239,-15.41198 5.84144,-9.93045 5.84144,-4.74468 5.84144,-3.64985 5.19239,-2.50417 5.19239,-3.32378 1.2981,-1.38539 3.8943,-4.53858 1.29809,-0.35085 3.8943,-0.80593 0.64905,0.47125 4.54334,4.79647 1.2981,2.20835 3.89429,7.28466 6.49049,19.13209 2.5962,7.35429 0.64905,1.41411 4.54334,6.32044 3.89429,4.22138 7.78859,13.30104 9.08668,14.94556 3.8943,5.57248 0.64905,0.59183 5.19239,1.1083 5.19239,-0.18907 5.84144,0.70222 5.84144,-0.071 7.13954,-2.87494 7.13954,-4.08799 5.19239,-2.51418 0.64905,-0.73379 5.84144,-9.35794 0.64905,-1.54567 5.84144,-17.00472 7.13954,-14.23068 1.2981,-2.08713 6.49049,-9.71297 1.29809,-2.71268 5.84144,-13.1386 7.13954,-12.62237 5.84144,-6.75606 0.64905,-0.55582 5.84144,-1.41927 0.64905,0.55605 5.84144,6.5889 1.2981,2.69412 5.84144,12.44511 4.54335,9.01178 5.84143,6.69977 0.64905,0.14279 4.54335,-0.55254 0.64905,-0.21661 5.19239,-3.68213 0.64905,-0.31784 5.84144,-1.51875 4.54334,0.60366 7.13954,-1.93106 5.19239,-1.95527 0.64905,0.007 5.19239,1.43779 5.19239,3.12901 0.64905,0.57328 4.54334,5.36696 1.94715,3.59306 5.19239,9.56289 2.5962,4.63876 0.64905,0.71256 5.19239,2.6546 6.49049,-7.9583 3.89429,-5.12014 5.84144,-2.45709 4.54335,-3.4973 0.64905,-0.69799 5.19239,-7.03068 5.19239,-4.86321 0.64905,0.18287 4.54334,2.15225 0.64905,1.25634 4.54334,12.93524 3.89429,15.73716 0.64905,2.07366 5.1924,7.86886 5.19239,-5.28255 0.64905,-1.22914 4.54334,-11.35588 1.94715,-3.64993 5.19239,-9.59574 9.08668,-18.53095 1.2981,-3.20067 4.54334,-11.46345 5.84145,-11.95612 3.24524,-7.03915 1.2981,-1.75743 3.89429,-4.72816 0.64905,0.0312 3.24524,2.36517 0.64905,0.84055 3.24525,5.56313 3.89429,8.80247 4.54334,13.10254 1.94715,5.18033 0.64905,2.11833 3.89429,16.92193 2.5962,11.62992 3.24524,10.74799 3.8943,11.73604 1.94715,6.19395 0.64904,1.38759 3.24525,2.16028 1.2981,-1.83941 1.94714,-3.00043 v 0" /></g></g><g
       id="g306"><g
         clip-path="url(#clipPath312)"
         id="g308"><path
           id="path314"
           style="fill:none;stroke:#ff7f0e;stroke-width:3;stroke-linecap:square;stroke-linejoin:round;stroke-miterlimit:10;stroke-dasharray:none;stroke-opacity:1"
           d="m 132.06009,462.67565 4.54335,10.80759 4.54334,6.92454 2.59619,0.73262 1.94715,0.48796 4.54334,-7.92872 0.64905,-1.37263 11.03384,-46.02598 10.38478,-33.9772 0.64905,-1.69396 4.54334,-6.03564 0.64905,0.52409 5.19239,6.30294 2.5962,4.91626 1.94714,3.73715 1.2981,3.62161 3.24525,10.09952 6.49049,24.8465 1.94714,7.70735 0.64905,1.93374 5.19239,11.25159 3.8943,7.85269 5.19239,12.21756 3.89429,8.41471 0.64905,0.73781 4.54334,2.71937 0.64905,-0.42108 5.1924,-4.95913 0.64904,-1.68189 5.1924,-20.77547 5.19239,-28.12835 7.13954,-18.51396 4.54334,-10.51406 1.2981,-5.22243 4.54334,-19.35692 5.19239,-11.9197 0.64905,0.3387 3.89429,7.62147 3.24525,10.90601 0.64905,1.06116 5.19239,3.87218 3.24524,1.35677 0.64905,0.65906 3.8943,6.47251 1.29809,3.2914 1.94715,5.17819 1.2981,2.50588 3.24525,5.82182 1.29809,3.23385 2.5962,6.60809 4.54334,2.93237 1.94715,0.0294 0.64905,0.23966 4.54334,2.64975 0.64905,0.55962 3.89429,4.95777 4.54334,8.57162 3.8943,6.12063 4.54334,3.93367 3.8943,5.42171 3.89429,7.1247 2.5962,4.59489 3.89429,6.58362 0.64905,0.80941 4.54334,4.38193 0.64905,0.21115 5.19239,-1.57893 5.19239,-5.02007 6.49049,-2.39955 5.84144,-2.97072 6.49049,-7.43549 5.19239,-6.84578 8.43764,-13.06207 0.64905,-1.39289 7.13954,-21.11447 1.94714,-7.61996 4.54335,-17.71927 6.49049,-20.81815 6.49049,-10.31092 0.64905,-0.12431 5.19239,6.46849 1.2981,2.68839 5.19239,11.15713 5.84144,9.60042 6.49049,9.25572 5.19239,8.0818 3.89429,6.63163 6.49049,12.69321 4.54334,8.35492 5.1924,8.82765 3.89429,7.22623 7.78859,10.78544 3.89429,5.70148 5.84144,3.31392 4.54334,-0.95527 1.2981,-0.27813 0.64905,-0.34065 6.49049,-5.98973 6.49049,-7.53201 10.38478,-5.36866 3.24525,-1.59531 1.2981,-1.15357 7.13954,-7.00136 6.49049,-4.60974 0.64904,0.0907 6.49049,2.52165 7.78859,0.16459 0.64905,-0.15207 8.43764,-7.54523 6.49049,-10.36455 8.43763,-10.14362 7.78859,-8.31579 7.78859,-13.10461 6.49049,-16.35572 0.64905,-1.31756 7.78858,-10.60639 0.64905,-0.50035 6.49049,-0.87847 5.84144,1.86053 0.64905,0.53611 5.84144,6.85807 7.13954,11.14224 4.54334,7.46878 1.2981,3.81611 4.54334,14.36572 3.8943,14.1129 0.64905,1.77159 5.19239,10.77978 5.84144,7.3518 1.2981,1.07348 3.89429,2.79649 1.2981,0.26328 3.89429,0.58407 1.94715,0.85419 4.54334,2.22481 5.19239,6.40375 3.24525,2.32973 3.24524,2.29795 1.2981,0.28931 5.19239,0.88288 6.49049,2.98739 6.49049,1.65334 1.94715,-1.15865 5.19239,-3.22409 0.64905,-0.63213 5.84144,-8.51149 0.64905,-1.25666 7.13954,-17.07005 1.2981,-4.1647 6.49049,-22.20093 6.49049,-20.2783 7.78858,-21.89529 5.84144,-13.393 1.2981,-1.04378 5.19239,-3.86928 1.94715,-2.73678 3.89429,-5.502 5.84144,-1.67938 0.64905,0.93989 4.54335,11.546 1.29809,5.78265 v 0" /></g></g><g
       id="g316"><path
         id="path318"
         style="fill:none;stroke:#000000;stroke-width:0.80000001;stroke-linecap:square;stroke-linejoin:miter;stroke-miterlimit:10;stroke-dasharray:none;stroke-opacity:1"
         d="M 99.640098,337.84717 V 498.79283" /><path
         id="path320"
         style="fill:none;stroke:#000000;stroke-width:0.80000001;stroke-linecap:square;stroke-linejoin:miter;stroke-miterlimit:10;stroke-dasharray:none;stroke-opacity:1"
         d="M 812.88,337.84717 V 498.79283" /><path
         id="path322"
         style="fill:none;stroke:#000000;stroke-width:0.80000001;stroke-linecap:square;stroke-linejoin:miter;stroke-miterlimit:10;stroke-dasharray:none;stroke-opacity:1"
         d="M 99.640098,337.84717 H 812.88" /><path
         id="path324"
         style="fill:none;stroke:#000000;stroke-width:0.80000001;stroke-linecap:square;stroke-linejoin:miter;stroke-miterlimit:10;stroke-dasharray:none;stroke-opacity:1"
         d="M 99.640098,498.79283 H 812.88" /><path
         id="path326"
         style="fill:#ffffff;fill-opacity:1;fill-rule:nonzero;stroke:none"
         d="M 99.640098,137.7 H 812.88 V 298.64567 H 99.640098 Z" /></g><g
       id="g328"><g
         clip-path="url(#clipPath334)"
         id="g330"><path
           id="path336"
           style="fill:none;stroke:#b0b0b0;stroke-width:0.80000001;stroke-linecap:square;stroke-linejoin:round;stroke-miterlimit:10;stroke-dasharray:none;stroke-opacity:1"
           d="M 132.06009,137.7 V 298.64567" /></g></g><g
       id="g338"><path
         id="path340"
         style="fill:#000000;fill-opacity:1;fill-rule:nonzero;stroke:#000000;stroke-width:0.80000001;stroke-linecap:butt;stroke-linejoin:round;stroke-miterlimit:10;stroke-dasharray:none;stroke-opacity:1"
         d="m 132.06009,137.7 v -3.5" /><text
         id="text344"
         style="font-variant:normal;font-weight:normal;font-size:26.89912796px;font-family:'Computer Modern';-inkscape-font-specification:CMR17;writing-mode:lr-tb;fill:#000000;fill-opacity:1;fill-rule:nonzero;stroke:none"
         transform="matrix(1,0,0,-1,125.89188,112.02005)"><tspan
           id="tspan342"
           y="0"
           x="0">0</tspan></text>
</g><g
       id="g346"><g
         clip-path="url(#clipPath352)"
         id="g348"><path
           id="path354"
           style="fill:none;stroke:#b0b0b0;stroke-width:0.80000001;stroke-linecap:square;stroke-linejoin:round;stroke-miterlimit:10;stroke-dasharray:none;stroke-opacity:1"
           d="M 307.36267,137.7 V 298.64567" /></g></g><g
       id="g356"><path
         id="path358"
         style="fill:#000000;fill-opacity:1;fill-rule:nonzero;stroke:#000000;stroke-width:0.80000001;stroke-linecap:butt;stroke-linejoin:round;stroke-miterlimit:10;stroke-dasharray:none;stroke-opacity:1"
         d="m 307.36267,137.7 v -3.5" /><text
         id="text362"
         style="font-variant:normal;font-weight:normal;font-size:26.89912796px;font-family:'Computer Modern';-inkscape-font-specification:CMR17;writing-mode:lr-tb;fill:#000000;fill-opacity:1;fill-rule:nonzero;stroke:none"
         transform="matrix(1,0,0,-1,301.19445,112.02005)"><tspan
           id="tspan360"
           y="0"
           x="0">5</tspan></text>
</g><g
       id="g364"><g
         clip-path="url(#clipPath370)"
         id="g366"><path
           id="path372"
           style="fill:none;stroke:#b0b0b0;stroke-width:0.80000001;stroke-linecap:square;stroke-linejoin:round;stroke-miterlimit:10;stroke-dasharray:none;stroke-opacity:1"
           d="M 482.66524,137.7 V 298.64567" /></g></g><g
       id="g374"><path
         id="path376"
         style="fill:#000000;fill-opacity:1;fill-rule:nonzero;stroke:#000000;stroke-width:0.80000001;stroke-linecap:butt;stroke-linejoin:round;stroke-miterlimit:10;stroke-dasharray:none;stroke-opacity:1"
         d="m 482.66524,137.7 v -3.5" /><text
         id="text380"
         style="font-variant:normal;font-weight:normal;font-size:26.89912796px;font-family:'Computer Modern';-inkscape-font-specification:CMR17;writing-mode:lr-tb;fill:#000000;fill-opacity:1;fill-rule:nonzero;stroke:none"
         transform="matrix(1,0,0,-1,470.32881,112.02005)"><tspan
           id="tspan378"
           y="0"
           x="0 12.3198">10</tspan></text>
</g><g
       id="g382"><g
         clip-path="url(#clipPath388)"
         id="g384"><path
           id="path390"
           style="fill:none;stroke:#b0b0b0;stroke-width:0.80000001;stroke-linecap:square;stroke-linejoin:round;stroke-miterlimit:10;stroke-dasharray:none;stroke-opacity:1"
           d="M 657.96782,137.7 V 298.64567" /></g></g><g
       id="g392"><path
         id="path394"
         style="fill:#000000;fill-opacity:1;fill-rule:nonzero;stroke:#000000;stroke-width:0.80000001;stroke-linecap:butt;stroke-linejoin:round;stroke-miterlimit:10;stroke-dasharray:none;stroke-opacity:1"
         d="m 657.96782,137.7 v -3.5" /><text
         id="text398"
         style="font-variant:normal;font-weight:normal;font-size:26.89912796px;font-family:'Computer Modern';-inkscape-font-specification:CMR17;writing-mode:lr-tb;fill:#000000;fill-opacity:1;fill-rule:nonzero;stroke:none"
         transform="matrix(1,0,0,-1,645.63139,112.02005)"><tspan
           id="tspan396"
           y="0"
           x="0 12.3198">15</tspan></text>
<text
         id="text402"
         style="font-variant:normal;font-weight:normal;font-size:26.89912796px;font-family:'Computer Modern';-inkscape-font-specification:CMR17;writing-mode:lr-tb;fill:#000000;fill-opacity:1;fill-rule:nonzero;stroke:none"
         transform="matrix(1,0,0,-1,242.6968,82.637816)"><tspan
           id="tspan400"
           y="0"
           x="0 17.941719 31.660275 41.182564 54.201744 60.899628 67.597511 74.295395 88.013947 98.934998 111.25479 128.89758 141.21739 154.93594 164.59273 175.51378 182.21165 191.86845 201.52524 221.96555 234.28534 240.98323 253.30302 267.02158 287.46188 296.98416 310.70273 329.74429 339.26657 348.78885 361.10867 371.32703 392.46671 399.16461 419.93073">Curvilinearabscissaalongthetrack[m]</tspan></text>
</g><g
       id="g404"><g
         clip-path="url(#clipPath410)"
         id="g406"><path
           id="path412"
           style="fill:none;stroke:#b0b0b0;stroke-width:0.80000001;stroke-linecap:square;stroke-linejoin:round;stroke-miterlimit:10;stroke-dasharray:none;stroke-opacity:1"
           d="M 99.640098,158.08031 H 812.88" /></g></g><g
       id="g414"><path
         id="path416"
         style="fill:#000000;fill-opacity:1;fill-rule:nonzero;stroke:#000000;stroke-width:0.80000001;stroke-linecap:butt;stroke-linejoin:round;stroke-miterlimit:10;stroke-dasharray:none;stroke-opacity:1"
         d="m 99.640098,158.08031 h -3.5" /><text
         id="text420"
         style="font-variant:normal;font-weight:normal;font-size:26.89912796px;font-family:'Computer Modern';-inkscape-font-specification:CMR17;writing-mode:lr-tb;fill:#000000;fill-opacity:1;fill-rule:nonzero;stroke:none"
         transform="matrix(1,0,0,-1,40.795134,148.74033)"><tspan
           id="tspan418"
           y="0"
           x="0 8.0966377 20.416439 27.114321 39.43412">-5.00</tspan></text>
</g><g
       id="g422"><g
         clip-path="url(#clipPath428)"
         id="g424"><path
           id="path430"
           style="fill:none;stroke:#b0b0b0;stroke-width:0.80000001;stroke-linecap:square;stroke-linejoin:round;stroke-miterlimit:10;stroke-dasharray:none;stroke-opacity:1"
           d="M 99.640098,205.51654 H 812.88" /></g></g><g
       id="g432"><path
         id="path434"
         style="fill:#000000;fill-opacity:1;fill-rule:nonzero;stroke:#000000;stroke-width:0.80000001;stroke-linecap:butt;stroke-linejoin:round;stroke-miterlimit:10;stroke-dasharray:none;stroke-opacity:1"
         d="m 99.640098,205.51654 h -3.5" /><text
         id="text438"
         style="font-variant:normal;font-weight:normal;font-size:26.89912796px;font-family:'Computer Modern';-inkscape-font-specification:CMR17;writing-mode:lr-tb;fill:#000000;fill-opacity:1;fill-rule:nonzero;stroke:none"
         transform="matrix(1,0,0,-1,48.915637,196.17656)"><tspan
           id="tspan436"
           y="0"
           x="0 12.3198 19.017683 31.337484">0.00</tspan></text>
</g><g
       id="g440"><g
         clip-path="url(#clipPath446)"
         id="g442"><path
           id="path448"
           style="fill:none;stroke:#b0b0b0;stroke-width:0.80000001;stroke-linecap:square;stroke-linejoin:round;stroke-miterlimit:10;stroke-dasharray:none;stroke-opacity:1"
           d="M 99.640098,252.95277 H 812.88" /></g></g><g
       id="g450"><path
         id="path452"
         style="fill:#000000;fill-opacity:1;fill-rule:nonzero;stroke:#000000;stroke-width:0.80000001;stroke-linecap:butt;stroke-linejoin:round;stroke-miterlimit:10;stroke-dasharray:none;stroke-opacity:1"
         d="m 99.640098,252.95277 h -3.5" /><text
         id="text456"
         style="font-variant:normal;font-weight:normal;font-size:26.89912796px;font-family:'Computer Modern';-inkscape-font-specification:CMR17;writing-mode:lr-tb;fill:#000000;fill-opacity:1;fill-rule:nonzero;stroke:none"
         transform="matrix(1,0,0,-1,48.915637,243.6128)"><tspan
           id="tspan454"
           y="0"
           x="0 12.3198 19.017683 31.337484">5.00</tspan></text>
<text
         id="text460"
         style="font-style:italic;font-variant:normal;font-weight:normal;font-size:26.89912796px;font-family:'Computer Modern';-inkscape-font-specification:CMMI12;writing-mode:lr-tb;fill:#000000;fill-opacity:1;fill-rule:nonzero;stroke:none"
         transform="matrix(0,1,1,0,29.099049,169.45038)"><tspan
           id="tspan458"
           y="0"
           x="0">a</tspan></text>
<text
         id="text464"
         style="font-style:italic;font-variant:normal;font-weight:normal;font-size:18.82930756px;font-family:'Computer Modern';-inkscape-font-specification:CMMI12;writing-mode:lr-tb;fill:#000000;fill-opacity:1;fill-rule:nonzero;stroke:none"
         transform="matrix(0,1,1,0,33.133906,183.27649)"><tspan
           id="tspan462"
           y="0"
           x="0">y</tspan></text>
<text
         id="text468"
         style="font-variant:normal;font-weight:normal;font-size:26.89912796px;font-family:'Computer Modern';-inkscape-font-specification:CMR17;writing-mode:lr-tb;fill:#000000;fill-opacity:1;fill-rule:nonzero;stroke:none"
         transform="matrix(0,1,1,0,29.099049,201.56029)"><tspan
           id="tspan466"
           y="0"
           x="0 6.6978831 27.46401 39.78381">[m/s</tspan></text>
<text
         id="text472"
         style="font-variant:normal;font-weight:normal;font-size:18.82930756px;font-family:'Computer Modern';-inkscape-font-specification:CMR17;writing-mode:lr-tb;fill:#000000;fill-opacity:1;fill-rule:nonzero;stroke:none"
         transform="matrix(0,1,1,0,19.337574,251.04653)"><tspan
           id="tspan470"
           y="0"
           x="0">2</tspan></text>
<text
         id="text476"
         style="font-variant:normal;font-weight:normal;font-size:26.89912796px;font-family:'Computer Modern';-inkscape-font-specification:CMR17;writing-mode:lr-tb;fill:#000000;fill-opacity:1;fill-rule:nonzero;stroke:none"
         transform="matrix(0,1,1,0,29.099049,260.18012)"><tspan
           id="tspan474"
           y="0"
           x="0">]</tspan></text>
</g><g
       id="g478"><g
         clip-path="url(#clipPath484)"
         id="g480"><path
           id="path486"
           style="fill:none;stroke:#1f77b4;stroke-width:3;stroke-linecap:square;stroke-linejoin:round;stroke-miterlimit:10;stroke-dasharray:none;stroke-opacity:1"
           d="m 132.06009,247.40881 3.8943,-3.99119 3.24524,-4.74765 0.64905,-1.18864 8.43764,-25.20219 5.19239,-5.67742 3.24524,-3.12404 0.64905,-1.15154 4.54335,-10.74911 4.54334,-13.58156 3.24524,-8.07286 0.64905,-1.18222 4.54335,-5.94315 0.64904,-0.5995 3.24525,-1.97669 1.2981,0.59922 3.89429,2.10861 3.89429,3.59841 3.8943,4.78343 1.2981,2.602 2.59619,5.59026 3.24525,2.94478 0.64905,0.19978 3.89429,-1.77707 0.64905,-0.10579 3.24524,1.11465 0.64905,0.56898 4.54334,5.93252 4.54335,7.4599 7.78858,16.44341 1.2981,2.68823 0.64905,1.06181 4.54334,5.78225 0.64905,0.41991 3.8943,0.92009 0.64905,0.008 4.54334,-2.10378 0.64905,-0.0749 4.54334,2.14608 4.54334,11.18409 1.2981,3.91626 3.24525,10.24913 1.29809,3.00417 3.8943,8.30387 2.59619,1.99312 1.2981,0.9366 5.84144,-7.14111 3.8943,-5.34359 0.64905,-0.51408 3.24524,-0.6592 0.64905,0.0673 3.89429,1.76966 1.94715,0.4238 1.94715,0.38536 0.64904,-0.14727 6.4905,-6.70139 0.64904,-0.43778 3.24525,-0.40843 2.59619,-1.03314 0.64905,-0.28497 5.19239,-4.95403 2.5962,-2.59821 3.24525,-2.86227 3.89429,-1.14335 8.43764,2.23552 0.64904,0.0692 3.24525,-0.23458 0.64905,-0.41642 5.19239,-4.87711 4.54334,-6.20553 1.2981,-0.91176 2.5962,-1.56925 5.84144,-0.33196 5.19239,1.22268 1.2981,0.60562 5.19239,2.70607 5.84144,5.9936 8.43764,11.42526 2.59619,3.62677 3.24525,3.22639 3.24524,3.09838 5.19239,4.01291 7.13954,4.17301 8.43764,4.58288 1.2981,0.0539 3.89429,-0.1353 0.64905,-0.36381 9.08668,-7.93288 4.54335,0.18067 0.64905,0.51451 4.54334,7.64797 3.89429,4.9607 5.19239,-7.61291 1.2981,-2.70085 4.54334,-9.69098 4.54335,-7.24948 0.64905,-0.64499 4.54334,-3.30278 0.64905,-0.33328 5.19239,-1.31384 4.54334,-2.4522 1.2981,-1.30026 5.84144,-6.48104 5.19239,-6.29311 6.49049,-3.80849 0.64905,-0.17457 6.49049,-0.10033 8.43764,1.26406 3.89429,0.71104 0.64905,0.34054 5.84144,4.42269 7.78859,7.59595 8.43763,5.09629 6.49049,4.50722 6.49049,3.65179 6.49049,1.93068 6.49049,2.85558 5.84144,1.61896 1.94715,-0.18888 3.89429,-0.46385 5.84145,0.48842 6.49048,3.61608 7.78859,2.5689 3.8943,1.30285 6.49049,2.84684 4.54334,2.16841 5.19239,2.23879 1.2981,-0.0148 4.54334,-0.39284 1.2981,-0.45112 4.54334,-1.84335 5.84144,-1.50074 5.84144,-3.39523 3.24525,-2.12304 0.64905,-0.29148 5.84144,-1.59587 5.19239,-1.88225 4.54334,-2.05625 5.19239,0.20802 7.13954,1.51705 3.24525,0.50178 0.64905,-0.0494 5.19239,-1.62152 5.84144,-4.33028 5.19239,-3.05297 4.54334,-3.83706 4.54334,-6.03451 5.1924,-5.02964 5.19239,-1.99903 0.64905,0.0647 4.54334,1.97454 1.94715,1.4104 4.54334,3.44737 11.03383,16.30845 3.8943,6.25111 2.59619,2.95224 2.5962,2.89647 0.64905,0.29866 3.89429,0.56502 1.2981,-0.15142 3.89429,-0.62896 0.64905,0.46721 6.49049,7.63163 0.64905,0.36122 3.24524,-2.08417 0.64905,-0.62711 3.8943,-4.95533 3.24524,-3.42238 3.24525,-1.44185 3.24524,-0.85825 3.24524,-1.2838 2.5962,-0.38237 1.2981,0.31011 2.59619,0.66328 3.24525,-0.17294 2.5962,-1.4744 0.64904,-0.37825 v 0" /></g></g><g
       id="g488"><g
         clip-path="url(#clipPath494)"
         id="g490"><path
           id="path496"
           style="fill:none;stroke:#ff7f0e;stroke-width:3;stroke-linecap:square;stroke-linejoin:round;stroke-miterlimit:10;stroke-dasharray:none;stroke-opacity:1"
           d="m 132.06009,264.78557 4.54335,-3.27842 4.54334,-2.10688 4.54334,-4.47393 5.19239,-9.5834 5.19239,-19.32769 2.5962,-12.55261 3.89429,-18.52263 4.54335,-19.37208 1.2981,-3.52658 3.89429,-9.80094 0.64905,-1.32685 13.63003,-14.55761 1.29809,-1.28879 0.64905,-0.0514 3.8943,2.12371 4.54334,3.1806 3.89429,0.83348 0.64905,-0.002 4.54334,-0.80856 3.8943,-1.50346 0.64905,-0.019 3.89429,0.87117 0.64905,0.3053 6.49049,7.03938 9.08669,9.18634 0.64904,1.22824 4.54335,11.86435 0.64905,2.05563 5.19239,20.30267 6.49049,20.89108 5.19239,14.35099 1.2981,2.69738 4.54334,8.77853 5.84144,7.0275 3.89429,6.09442 3.24525,6.78174 0.64905,0.66949 4.54334,2.25397 0.64905,0.0408 3.24524,-2.59585 0.64905,-0.74495 3.8943,-5.93618 1.94714,-3.91621 1.2981,-2.66784 0.64905,-0.67354 3.8943,-2.21605 0.64904,0.12962 3.24525,1.94169 4.54334,1.40783 1.94715,-1.23814 0.64905,-0.17207 4.54334,-0.18678 0.64905,0.18111 4.54334,3.23392 3.24525,1.85052 0.64904,-0.10183 3.8943,-1.70716 3.89429,-0.50832 0.64905,0.0337 3.8943,2.27729 1.29809,-0.32756 3.8943,-1.25138 1.94714,-2.51209 3.8943,-5.04218 4.54334,-4.59832 0.64905,-0.34803 5.84144,-0.53202 4.54334,-0.9546 6.49049,-3.9127 5.84144,-4.03777 5.84144,-1.02292 14.92813,3.41383 7.78859,5.7643 5.19239,2.6859 1.2981,-0.32467 5.84144,-1.70278 6.49049,-0.1148 0.64905,0.42649 5.19239,7.01655 1.94714,3.62022 3.8943,7.43002 1.2981,1.74718 4.54334,5.68192 5.84144,4.9708 5.19239,2.75557 1.2981,-0.48114 3.24524,-1.37307 1.2981,-0.94876 3.8943,-3.15656 1.29809,-0.69416 4.54335,-2.18569 5.19239,-1.26215 4.54334,-4.2262 11.68288,-14.64914 6.49049,-3.26806 12.98098,-5.20337 5.84144,-1.45331 7.13954,-3.42895 1.2981,-1.14845 5.19239,-4.94247 1.2981,-0.72774 8.43763,-3.79089 5.1924,-2.08204 2.59619,-1.66425 4.54334,-2.96292 8.43764,-3.05805 7.78859,1.03295 0.64905,0.20957 6.49049,5.8601 8.43763,10.95905 9.73574,14.06468 5.84144,8.02427 7.13954,6.10329 9.73573,6.31198 5.19239,3.67033 5.84144,2.32856 0.64905,0.48906 5.84144,5.85694 5.84144,8.85696 5.84144,1.78815 0.64905,-0.46556 4.54335,-4.83352 0.64904,-0.92506 5.1924,-9.59195 4.54334,-9.01335 5.84144,-8.55987 0.64905,-0.70696 4.54334,-3.79569 1.2981,-0.38048 3.89429,-0.92489 1.2981,0.11434 7.78859,1.13159 3.24524,0.46952 6.49049,0.3379 6.49049,1.58369 5.84144,1.91058 6.49049,-3.48695 3.8943,-4.1903 3.24524,-3.51814 0.64905,-0.5394 5.84144,-2.83143 0.64905,-0.18073 8.43764,-0.60589 5.84144,0.1004 14.27907,2.92892 0.64905,0.51779 5.84144,7.96821 3.8943,8.90636 3.24524,7.26491 5.19239,9.95452 6.49049,4.92467 4.54335,4.2951 1.29809,-0.27644 v 0" /></g></g><g
       id="g498"><path
         id="path500"
         style="fill:none;stroke:#000000;stroke-width:0.80000001;stroke-linecap:square;stroke-linejoin:miter;stroke-miterlimit:10;stroke-dasharray:none;stroke-opacity:1"
         d="M 99.640098,137.7 V 298.64567" /><path
         id="path502"
         style="fill:none;stroke:#000000;stroke-width:0.80000001;stroke-linecap:square;stroke-linejoin:miter;stroke-miterlimit:10;stroke-dasharray:none;stroke-opacity:1"
         d="M 812.88,137.7 V 298.64567" /><path
         id="path504"
         style="fill:none;stroke:#000000;stroke-width:0.80000001;stroke-linecap:square;stroke-linejoin:miter;stroke-miterlimit:10;stroke-dasharray:none;stroke-opacity:1"
         d="M 99.640098,137.7 H 812.88" /><path
         id="path506"
         style="fill:none;stroke:#000000;stroke-width:0.80000001;stroke-linecap:square;stroke-linejoin:miter;stroke-miterlimit:10;stroke-dasharray:none;stroke-opacity:1"
         d="M 99.640098,298.64567 H 812.88" /><path
         id="path508"
         style="fill:none;stroke:#1f77b4;stroke-width:3;stroke-linecap:square;stroke-linejoin:round;stroke-miterlimit:10;stroke-dasharray:none;stroke-opacity:1"
         d="m 102.21957,32.682104 h 27 27" /><text
         id="text512"
         style="font-variant:normal;font-weight:normal;font-size:26.89912796px;font-family:'Computer Modern';-inkscape-font-specification:CMR17;writing-mode:lr-tb;fill:#000000;fill-opacity:1;fill-rule:nonzero;stroke:none"
         transform="matrix(1,0,0,-1,177.81957,23.232104)"><tspan
           id="tspan510"
           y="0"
           x="0 16.892653 41.905807 69.366783 92.231041 105.9496 114.04623 132.68733">PP+MS-NN</tspan></text>
<path
         id="path514"
         style="fill:none;stroke:#ff7f0e;stroke-width:3;stroke-linecap:square;stroke-linejoin:round;stroke-miterlimit:10;stroke-dasharray:none;stroke-opacity:1"
         d="m 383.24697,32.682104 h 27 27" /><text
         id="text518"
         style="font-variant:normal;font-weight:normal;font-size:26.89912796px;font-family:'Computer Modern';-inkscape-font-specification:CMR17;writing-mode:lr-tb;fill:#000000;fill-opacity:1;fill-rule:nonzero;stroke:none"
         transform="matrix(1,0,0,-1,458.84697,23.232104)"><tspan
           id="tspan516"
           y="0"
           x="0 16.892653 41.905807 69.366783 92.231041 105.9496 114.04623 132.68733 159.44893 186.90991 203.10318 220.69522 240.22398">PP+MS-NN+FBGA</tspan></text>
</g></g></svg>