<?xml version="1.0" encoding="UTF-8" standalone="no"?>
<svg
   xmlns:dc="http://purl.org/dc/elements/1.1/"
   xmlns:cc="http://creativecommons.org/ns#"
   xmlns:rdf="http://www.w3.org/1999/02/22-rdf-syntax-ns#"
   xmlns:svg="http://www.w3.org/2000/svg"
   xmlns="http://www.w3.org/2000/svg"
   viewBox="0 0 1127.7963 544.85596"
   height="544.85596"
   width="1127.7963"
   xml:space="preserve"
   id="svg2"
   version="1.1"><metadata
     id="metadata8"><rdf:RDF><cc:Work
         rdf:about=""><dc:format>image/svg+xml</dc:format><dc:type
           rdf:resource="http://purl.org/dc/dcmitype/StillImage" /></cc:Work></rdf:RDF></metadata><defs
     id="defs6"><clipPath
       id="clipPath22"
       clipPathUnits="userSpaceOnUse"><path
         id="path20"
         d="M 89.377937,133.43408 H 780.88347 V 401.44197 H 89.377937 Z" /></clipPath><clipPath
       id="clipPath48"
       clipPathUnits="userSpaceOnUse"><path
         id="path46"
         d="M 89.377937,133.43408 H 780.88347 V 401.44197 H 89.377937 Z" /></clipPath><clipPath
       id="clipPath74"
       clipPathUnits="userSpaceOnUse"><path
         id="path72"
         d="M 89.377937,133.43408 H 780.88347 V 401.44197 H 89.377937 Z" /></clipPath><clipPath
       id="clipPath100"
       clipPathUnits="userSpaceOnUse"><path
         id="path98"
         d="M 89.377937,133.43408 H 780.88347 V 401.44197 H 89.377937 Z" /></clipPath><clipPath
       id="clipPath126"
       clipPathUnits="userSpaceOnUse"><path
         id="path124"
         d="M 89.377937,133.43408 H 780.88347 V 401.44197 H 89.377937 Z" /></clipPath><clipPath
       id="clipPath152"
       clipPathUnits="userSpaceOnUse"><path
         id="path150"
         d="M 89.377937,133.43408 H 780.88347 V 401.44197 H 89.377937 Z" /></clipPath><clipPath
       id="clipPath178"
       clipPathUnits="userSpaceOnUse"><path
         id="path176"
         d="M 89.377937,133.43408 H 780.88347 V 401.44197 H 89.377937 Z" /></clipPath><clipPath
       id="clipPath204"
       clipPathUnits="userSpaceOnUse"><path
         id="path202"
         d="M 89.377937,133.43408 H 780.88347 V 401.44197 H 89.377937 Z" /></clipPath><clipPath
       id="clipPath234"
       clipPathUnits="userSpaceOnUse"><path
         id="path232"
         d="M 89.377937,133.43408 H 780.88347 V 401.44197 H 89.377937 Z" /></clipPath><clipPath
       id="clipPath260"
       clipPathUnits="userSpaceOnUse"><path
         id="path258"
         d="M 89.377937,133.43408 H 780.88347 V 401.44197 H 89.377937 Z" /></clipPath><clipPath
       id="clipPath286"
       clipPathUnits="userSpaceOnUse"><path
         id="path284"
         d="M 89.377937,133.43408 H 780.88347 V 401.44197 H 89.377937 Z" /></clipPath><clipPath
       id="clipPath312"
       clipPathUnits="userSpaceOnUse"><path
         id="path310"
         d="M 89.377937,133.43408 H 780.88347 V 401.44197 H 89.377937 Z" /></clipPath><clipPath
       id="clipPath342"
       clipPathUnits="userSpaceOnUse"><path
         id="path340"
         d="M 89.377937,133.43408 H 780.88347 V 401.44197 H 89.377937 Z" /></clipPath><clipPath
       id="clipPath352"
       clipPathUnits="userSpaceOnUse"><path
         id="path350"
         d="M 89.377937,133.43408 H 780.88347 V 401.44197 H 89.377937 Z" /></clipPath><clipPath
       id="clipPath362"
       clipPathUnits="userSpaceOnUse"><path
         id="path360"
         d="M 89.377937,133.43408 H 780.88347 V 401.44197 H 89.377937 Z" /></clipPath><clipPath
       id="clipPath372"
       clipPathUnits="userSpaceOnUse"><path
         id="path370"
         d="M 89.377937,133.43408 H 780.88347 V 401.44197 H 89.377937 Z" /></clipPath></defs><g
     transform="matrix(1.3333333,0,0,-1.3333333,0,544.85597)"
     id="g10"><path
       id="path12"
       style="fill:#ffffff;fill-opacity:1;fill-rule:nonzero;stroke:none"
       d="M 0,0 H 845.84723 V 408.64197 H 0 Z" /><path
       id="path14"
       style="fill:#ffffff;fill-opacity:1;fill-rule:nonzero;stroke:none"
       d="M 89.377937,133.43408 H 780.88347 V 401.44197 H 89.377937 Z" /><g
       id="g16"><g
         clip-path="url(#clipPath22)"
         id="g18"><path
           id="path24"
           style="fill:none;stroke:#b0b0b0;stroke-width:0.80000001;stroke-linecap:butt;stroke-linejoin:round;stroke-miterlimit:10;stroke-dasharray:2.96, 1.28;stroke-dashoffset:0;stroke-opacity:0.4"
           d="M 120.81001,133.43408 V 401.44197" /></g></g><g
       id="g26"><path
         id="path28"
         style="fill:#000000;fill-opacity:1;fill-rule:nonzero;stroke:#000000;stroke-width:0.80000001;stroke-linecap:butt;stroke-linejoin:round;stroke-miterlimit:10;stroke-dasharray:none;stroke-opacity:1"
         d="m 120.81001,133.43408 v -3.5" /><text
         id="text32"
         style="font-variant:normal;font-weight:normal;font-size:26.89912796px;font-family:'Computer Modern';-inkscape-font-specification:CMR17;writing-mode:lr-tb;fill:#000000;fill-opacity:1;fill-rule:nonzero;stroke:none"
         transform="matrix(1,0,0,-1,104.81546,107.75413)"><tspan
           id="tspan30"
           y="0"
           x="0">0</tspan></text>
<text
         id="text36"
         style="font-style:italic;font-variant:normal;font-weight:normal;font-size:26.89912796px;font-family:'Computer Modern';-inkscape-font-specification:CMMI12;writing-mode:lr-tb;fill:#000000;fill-opacity:1;fill-rule:nonzero;stroke:none"
         transform="matrix(1,0,0,-1,117.15189,107.75413)"><tspan
           id="tspan34"
           y="0"
           x="0">.</tspan></text>
<text
         id="text40"
         style="font-variant:normal;font-weight:normal;font-size:26.89912796px;font-family:'Computer Modern';-inkscape-font-specification:CMR17;writing-mode:lr-tb;fill:#000000;fill-opacity:1;fill-rule:nonzero;stroke:none"
         transform="matrix(1,0,0,-1,124.46813,107.75413)"><tspan
           id="tspan38"
           y="0"
           x="0">0</tspan></text>
</g><g
       id="g42"><g
         clip-path="url(#clipPath48)"
         id="g44"><path
           id="path50"
           style="fill:none;stroke:#b0b0b0;stroke-width:0.80000001;stroke-linecap:butt;stroke-linejoin:round;stroke-miterlimit:10;stroke-dasharray:2.96, 1.28;stroke-dashoffset:0;stroke-opacity:0.4"
           d="M 209.43201,133.43408 V 401.44197" /></g></g><g
       id="g52"><path
         id="path54"
         style="fill:#000000;fill-opacity:1;fill-rule:nonzero;stroke:#000000;stroke-width:0.80000001;stroke-linecap:butt;stroke-linejoin:round;stroke-miterlimit:10;stroke-dasharray:none;stroke-opacity:1"
         d="m 209.43201,133.43408 v -3.5" /><text
         id="text58"
         style="font-variant:normal;font-weight:normal;font-size:26.89912796px;font-family:'Computer Modern';-inkscape-font-specification:CMR17;writing-mode:lr-tb;fill:#000000;fill-opacity:1;fill-rule:nonzero;stroke:none"
         transform="matrix(1,0,0,-1,193.43746,107.75413)"><tspan
           id="tspan56"
           y="0"
           x="0">2</tspan></text>
<text
         id="text62"
         style="font-style:italic;font-variant:normal;font-weight:normal;font-size:26.89912796px;font-family:'Computer Modern';-inkscape-font-specification:CMMI12;writing-mode:lr-tb;fill:#000000;fill-opacity:1;fill-rule:nonzero;stroke:none"
         transform="matrix(1,0,0,-1,205.77389,107.75413)"><tspan
           id="tspan60"
           y="0"
           x="0">.</tspan></text>
<text
         id="text66"
         style="font-variant:normal;font-weight:normal;font-size:26.89912796px;font-family:'Computer Modern';-inkscape-font-specification:CMR17;writing-mode:lr-tb;fill:#000000;fill-opacity:1;fill-rule:nonzero;stroke:none"
         transform="matrix(1,0,0,-1,213.09013,107.75413)"><tspan
           id="tspan64"
           y="0"
           x="0">5</tspan></text>
</g><g
       id="g68"><g
         clip-path="url(#clipPath74)"
         id="g70"><path
           id="path76"
           style="fill:none;stroke:#b0b0b0;stroke-width:0.80000001;stroke-linecap:butt;stroke-linejoin:round;stroke-miterlimit:10;stroke-dasharray:2.96, 1.28;stroke-dashoffset:0;stroke-opacity:0.4"
           d="M 298.05401,133.43408 V 401.44197" /></g></g><g
       id="g78"><path
         id="path80"
         style="fill:#000000;fill-opacity:1;fill-rule:nonzero;stroke:#000000;stroke-width:0.80000001;stroke-linecap:butt;stroke-linejoin:round;stroke-miterlimit:10;stroke-dasharray:none;stroke-opacity:1"
         d="m 298.05401,133.43408 v -3.5" /><text
         id="text84"
         style="font-variant:normal;font-weight:normal;font-size:26.89912796px;font-family:'Computer Modern';-inkscape-font-specification:CMR17;writing-mode:lr-tb;fill:#000000;fill-opacity:1;fill-rule:nonzero;stroke:none"
         transform="matrix(1,0,0,-1,282.05946,107.75413)"><tspan
           id="tspan82"
           y="0"
           x="0">5</tspan></text>
<text
         id="text88"
         style="font-style:italic;font-variant:normal;font-weight:normal;font-size:26.89912796px;font-family:'Computer Modern';-inkscape-font-specification:CMMI12;writing-mode:lr-tb;fill:#000000;fill-opacity:1;fill-rule:nonzero;stroke:none"
         transform="matrix(1,0,0,-1,294.39589,107.75413)"><tspan
           id="tspan86"
           y="0"
           x="0">.</tspan></text>
<text
         id="text92"
         style="font-variant:normal;font-weight:normal;font-size:26.89912796px;font-family:'Computer Modern';-inkscape-font-specification:CMR17;writing-mode:lr-tb;fill:#000000;fill-opacity:1;fill-rule:nonzero;stroke:none"
         transform="matrix(1,0,0,-1,301.71213,107.75413)"><tspan
           id="tspan90"
           y="0"
           x="0">0</tspan></text>
</g><g
       id="g94"><g
         clip-path="url(#clipPath100)"
         id="g96"><path
           id="path102"
           style="fill:none;stroke:#b0b0b0;stroke-width:0.80000001;stroke-linecap:butt;stroke-linejoin:round;stroke-miterlimit:10;stroke-dasharray:2.96, 1.28;stroke-dashoffset:0;stroke-opacity:0.4"
           d="M 386.67601,133.43408 V 401.44197" /></g></g><g
       id="g104"><path
         id="path106"
         style="fill:#000000;fill-opacity:1;fill-rule:nonzero;stroke:#000000;stroke-width:0.80000001;stroke-linecap:butt;stroke-linejoin:round;stroke-miterlimit:10;stroke-dasharray:none;stroke-opacity:1"
         d="m 386.67601,133.43408 v -3.5" /><text
         id="text110"
         style="font-variant:normal;font-weight:normal;font-size:26.89912796px;font-family:'Computer Modern';-inkscape-font-specification:CMR17;writing-mode:lr-tb;fill:#000000;fill-opacity:1;fill-rule:nonzero;stroke:none"
         transform="matrix(1,0,0,-1,370.68147,107.75413)"><tspan
           id="tspan108"
           y="0"
           x="0">7</tspan></text>
<text
         id="text114"
         style="font-style:italic;font-variant:normal;font-weight:normal;font-size:26.89912796px;font-family:'Computer Modern';-inkscape-font-specification:CMMI12;writing-mode:lr-tb;fill:#000000;fill-opacity:1;fill-rule:nonzero;stroke:none"
         transform="matrix(1,0,0,-1,383.0179,107.75413)"><tspan
           id="tspan112"
           y="0"
           x="0">.</tspan></text>
<text
         id="text118"
         style="font-variant:normal;font-weight:normal;font-size:26.89912796px;font-family:'Computer Modern';-inkscape-font-specification:CMR17;writing-mode:lr-tb;fill:#000000;fill-opacity:1;fill-rule:nonzero;stroke:none"
         transform="matrix(1,0,0,-1,390.33413,107.75413)"><tspan
           id="tspan116"
           y="0"
           x="0">5</tspan></text>
</g><g
       id="g120"><g
         clip-path="url(#clipPath126)"
         id="g122"><path
           id="path128"
           style="fill:none;stroke:#b0b0b0;stroke-width:0.80000001;stroke-linecap:butt;stroke-linejoin:round;stroke-miterlimit:10;stroke-dasharray:2.96, 1.28;stroke-dashoffset:0;stroke-opacity:0.4"
           d="M 475.29802,133.43408 V 401.44197" /></g></g><g
       id="g130"><path
         id="path132"
         style="fill:#000000;fill-opacity:1;fill-rule:nonzero;stroke:#000000;stroke-width:0.80000001;stroke-linecap:butt;stroke-linejoin:round;stroke-miterlimit:10;stroke-dasharray:none;stroke-opacity:1"
         d="m 475.29802,133.43408 v -3.5" /><text
         id="text136"
         style="font-variant:normal;font-weight:normal;font-size:26.89912796px;font-family:'Computer Modern';-inkscape-font-specification:CMR17;writing-mode:lr-tb;fill:#000000;fill-opacity:1;fill-rule:nonzero;stroke:none"
         transform="matrix(1,0,0,-1,453.13526,107.75413)"><tspan
           id="tspan134"
           y="0"
           x="0 12.3198">10</tspan></text>
<text
         id="text140"
         style="font-style:italic;font-variant:normal;font-weight:normal;font-size:26.89912796px;font-family:'Computer Modern';-inkscape-font-specification:CMMI12;writing-mode:lr-tb;fill:#000000;fill-opacity:1;fill-rule:nonzero;stroke:none"
         transform="matrix(1,0,0,-1,477.80811,107.75413)"><tspan
           id="tspan138"
           y="0"
           x="0">.</tspan></text>
<text
         id="text144"
         style="font-variant:normal;font-weight:normal;font-size:26.89912796px;font-family:'Computer Modern';-inkscape-font-specification:CMR17;writing-mode:lr-tb;fill:#000000;fill-opacity:1;fill-rule:nonzero;stroke:none"
         transform="matrix(1,0,0,-1,485.12435,107.75413)"><tspan
           id="tspan142"
           y="0"
           x="0">0</tspan></text>
</g><g
       id="g146"><g
         clip-path="url(#clipPath152)"
         id="g148"><path
           id="path154"
           style="fill:none;stroke:#b0b0b0;stroke-width:0.80000001;stroke-linecap:butt;stroke-linejoin:round;stroke-miterlimit:10;stroke-dasharray:2.96, 1.28;stroke-dashoffset:0;stroke-opacity:0.4"
           d="M 563.92002,133.43408 V 401.44197" /></g></g><g
       id="g156"><path
         id="path158"
         style="fill:#000000;fill-opacity:1;fill-rule:nonzero;stroke:#000000;stroke-width:0.80000001;stroke-linecap:butt;stroke-linejoin:round;stroke-miterlimit:10;stroke-dasharray:none;stroke-opacity:1"
         d="m 563.92002,133.43408 v -3.5" /><text
         id="text162"
         style="font-variant:normal;font-weight:normal;font-size:26.89912796px;font-family:'Computer Modern';-inkscape-font-specification:CMR17;writing-mode:lr-tb;fill:#000000;fill-opacity:1;fill-rule:nonzero;stroke:none"
         transform="matrix(1,0,0,-1,541.75726,107.75413)"><tspan
           id="tspan160"
           y="0"
           x="0 12.3198">12</tspan></text>
<text
         id="text166"
         style="font-style:italic;font-variant:normal;font-weight:normal;font-size:26.89912796px;font-family:'Computer Modern';-inkscape-font-specification:CMMI12;writing-mode:lr-tb;fill:#000000;fill-opacity:1;fill-rule:nonzero;stroke:none"
         transform="matrix(1,0,0,-1,566.43012,107.75413)"><tspan
           id="tspan164"
           y="0"
           x="0">.</tspan></text>
<text
         id="text170"
         style="font-variant:normal;font-weight:normal;font-size:26.89912796px;font-family:'Computer Modern';-inkscape-font-specification:CMR17;writing-mode:lr-tb;fill:#000000;fill-opacity:1;fill-rule:nonzero;stroke:none"
         transform="matrix(1,0,0,-1,573.74635,107.75413)"><tspan
           id="tspan168"
           y="0"
           x="0">5</tspan></text>
</g><g
       id="g172"><g
         clip-path="url(#clipPath178)"
         id="g174"><path
           id="path180"
           style="fill:none;stroke:#b0b0b0;stroke-width:0.80000001;stroke-linecap:butt;stroke-linejoin:round;stroke-miterlimit:10;stroke-dasharray:2.96, 1.28;stroke-dashoffset:0;stroke-opacity:0.4"
           d="M 652.54202,133.43408 V 401.44197" /></g></g><g
       id="g182"><path
         id="path184"
         style="fill:#000000;fill-opacity:1;fill-rule:nonzero;stroke:#000000;stroke-width:0.80000001;stroke-linecap:butt;stroke-linejoin:round;stroke-miterlimit:10;stroke-dasharray:none;stroke-opacity:1"
         d="m 652.54202,133.43408 v -3.5" /><text
         id="text188"
         style="font-variant:normal;font-weight:normal;font-size:26.89912796px;font-family:'Computer Modern';-inkscape-font-specification:CMR17;writing-mode:lr-tb;fill:#000000;fill-opacity:1;fill-rule:nonzero;stroke:none"
         transform="matrix(1,0,0,-1,630.37926,107.75413)"><tspan
           id="tspan186"
           y="0"
           x="0 12.3198">15</tspan></text>
<text
         id="text192"
         style="font-style:italic;font-variant:normal;font-weight:normal;font-size:26.89912796px;font-family:'Computer Modern';-inkscape-font-specification:CMMI12;writing-mode:lr-tb;fill:#000000;fill-opacity:1;fill-rule:nonzero;stroke:none"
         transform="matrix(1,0,0,-1,655.05212,107.75413)"><tspan
           id="tspan190"
           y="0"
           x="0">.</tspan></text>
<text
         id="text196"
         style="font-variant:normal;font-weight:normal;font-size:26.89912796px;font-family:'Computer Modern';-inkscape-font-specification:CMR17;writing-mode:lr-tb;fill:#000000;fill-opacity:1;fill-rule:nonzero;stroke:none"
         transform="matrix(1,0,0,-1,662.36836,107.75413)"><tspan
           id="tspan194"
           y="0"
           x="0">0</tspan></text>
</g><g
       id="g198"><g
         clip-path="url(#clipPath204)"
         id="g200"><path
           id="path206"
           style="fill:none;stroke:#b0b0b0;stroke-width:0.80000001;stroke-linecap:butt;stroke-linejoin:round;stroke-miterlimit:10;stroke-dasharray:2.96, 1.28;stroke-dashoffset:0;stroke-opacity:0.4"
           d="M 741.16403,133.43408 V 401.44197" /></g></g><g
       id="g208"><path
         id="path210"
         style="fill:#000000;fill-opacity:1;fill-rule:nonzero;stroke:#000000;stroke-width:0.80000001;stroke-linecap:butt;stroke-linejoin:round;stroke-miterlimit:10;stroke-dasharray:none;stroke-opacity:1"
         d="m 741.16403,133.43408 v -3.5" /><text
         id="text214"
         style="font-variant:normal;font-weight:normal;font-size:26.89912796px;font-family:'Computer Modern';-inkscape-font-specification:CMR17;writing-mode:lr-tb;fill:#000000;fill-opacity:1;fill-rule:nonzero;stroke:none"
         transform="matrix(1,0,0,-1,719.00126,107.75413)"><tspan
           id="tspan212"
           y="0"
           x="0 12.3198">17</tspan></text>
<text
         id="text218"
         style="font-style:italic;font-variant:normal;font-weight:normal;font-size:26.89912796px;font-family:'Computer Modern';-inkscape-font-specification:CMMI12;writing-mode:lr-tb;fill:#000000;fill-opacity:1;fill-rule:nonzero;stroke:none"
         transform="matrix(1,0,0,-1,743.67412,107.75413)"><tspan
           id="tspan216"
           y="0"
           x="0">.</tspan></text>
<text
         id="text222"
         style="font-variant:normal;font-weight:normal;font-size:26.89912796px;font-family:'Computer Modern';-inkscape-font-specification:CMR17;writing-mode:lr-tb;fill:#000000;fill-opacity:1;fill-rule:nonzero;stroke:none"
         transform="matrix(1,0,0,-1,750.99036,107.75413)"><tspan
           id="tspan220"
           y="0"
           x="0">5</tspan></text>
<text
         id="text226"
         style="font-variant:normal;font-weight:normal;font-size:26.89912796px;font-family:'Computer Modern';-inkscape-font-specification:CMR17;writing-mode:lr-tb;fill:#000000;fill-opacity:1;fill-rule:nonzero;stroke:none"
         transform="matrix(1,0,0,-1,221.56745,78.371894)"><tspan
           id="tspan224"
           y="0"
           x="0 17.941719 31.660275 41.182564 54.201744 60.899628 67.597511 74.295395 88.013947 98.934998 111.25479 128.89758 141.21739 154.93594 164.59273 175.51378 182.21165 191.86845 201.52524 221.96555 234.28534 240.98323 253.30302 267.02158 287.46188 296.98416 310.70273 329.74429 339.26657 348.78885 361.10867 371.32703 392.46671 399.16461 419.93073">Curvilinearabscissaalongthetrack[m]</tspan></text>
</g><g
       id="g228"><g
         clip-path="url(#clipPath234)"
         id="g230"><path
           id="path236"
           style="fill:none;stroke:#b0b0b0;stroke-width:0.80000001;stroke-linecap:butt;stroke-linejoin:round;stroke-miterlimit:10;stroke-dasharray:2.96, 1.28;stroke-dashoffset:0;stroke-opacity:0.4"
           d="M 89.377937,181.26325 H 780.88347" /></g></g><g
       id="g238"><path
         id="path240"
         style="fill:#000000;fill-opacity:1;fill-rule:nonzero;stroke:#000000;stroke-width:0.80000001;stroke-linecap:butt;stroke-linejoin:round;stroke-miterlimit:10;stroke-dasharray:none;stroke-opacity:1"
         d="m 89.377937,181.26325 h -3.5" /><text
         id="text244"
         style="font-variant:normal;font-weight:normal;font-size:26.89912796px;font-family:'Computer Modern';-inkscape-font-specification:CMR17;writing-mode:lr-tb;fill:#000000;fill-opacity:1;fill-rule:nonzero;stroke:none"
         transform="matrix(1,0,0,-1,38.052413,171.92328)"><tspan
           id="tspan242"
           y="0"
           x="0">0</tspan></text>
<text
         id="text248"
         style="font-style:italic;font-variant:normal;font-weight:normal;font-size:26.89912796px;font-family:'Computer Modern';-inkscape-font-specification:CMMI12;writing-mode:lr-tb;fill:#000000;fill-opacity:1;fill-rule:nonzero;stroke:none"
         transform="matrix(1,0,0,-1,50.388842,171.92328)"><tspan
           id="tspan246"
           y="0"
           x="0">.</tspan></text>
<text
         id="text252"
         style="font-variant:normal;font-weight:normal;font-size:26.89912796px;font-family:'Computer Modern';-inkscape-font-specification:CMR17;writing-mode:lr-tb;fill:#000000;fill-opacity:1;fill-rule:nonzero;stroke:none"
         transform="matrix(1,0,0,-1,57.70508,171.92328)"><tspan
           id="tspan250"
           y="0"
           x="0 12.3198">05</tspan></text>
</g><g
       id="g254"><g
         clip-path="url(#clipPath260)"
         id="g256"><path
           id="path262"
           style="fill:none;stroke:#b0b0b0;stroke-width:0.80000001;stroke-linecap:butt;stroke-linejoin:round;stroke-miterlimit:10;stroke-dasharray:2.96, 1.28;stroke-dashoffset:0;stroke-opacity:0.4"
           d="M 89.377937,248.73157 H 780.88347" /></g></g><g
       id="g264"><path
         id="path266"
         style="fill:#000000;fill-opacity:1;fill-rule:nonzero;stroke:#000000;stroke-width:0.80000001;stroke-linecap:butt;stroke-linejoin:round;stroke-miterlimit:10;stroke-dasharray:none;stroke-opacity:1"
         d="m 89.377937,248.73157 h -3.5" /><text
         id="text270"
         style="font-variant:normal;font-weight:normal;font-size:26.89912796px;font-family:'Computer Modern';-inkscape-font-specification:CMR17;writing-mode:lr-tb;fill:#000000;fill-opacity:1;fill-rule:nonzero;stroke:none"
         transform="matrix(1,0,0,-1,38.052413,239.3916)"><tspan
           id="tspan268"
           y="0"
           x="0">0</tspan></text>
<text
         id="text274"
         style="font-style:italic;font-variant:normal;font-weight:normal;font-size:26.89912796px;font-family:'Computer Modern';-inkscape-font-specification:CMMI12;writing-mode:lr-tb;fill:#000000;fill-opacity:1;fill-rule:nonzero;stroke:none"
         transform="matrix(1,0,0,-1,50.388842,239.3916)"><tspan
           id="tspan272"
           y="0"
           x="0">.</tspan></text>
<text
         id="text278"
         style="font-variant:normal;font-weight:normal;font-size:26.89912796px;font-family:'Computer Modern';-inkscape-font-specification:CMR17;writing-mode:lr-tb;fill:#000000;fill-opacity:1;fill-rule:nonzero;stroke:none"
         transform="matrix(1,0,0,-1,57.70508,239.3916)"><tspan
           id="tspan276"
           y="0"
           x="0 12.3198">10</tspan></text>
</g><g
       id="g280"><g
         clip-path="url(#clipPath286)"
         id="g282"><path
           id="path288"
           style="fill:none;stroke:#b0b0b0;stroke-width:0.80000001;stroke-linecap:butt;stroke-linejoin:round;stroke-miterlimit:10;stroke-dasharray:2.96, 1.28;stroke-dashoffset:0;stroke-opacity:0.4"
           d="M 89.377937,316.19989 H 780.88347" /></g></g><g
       id="g290"><path
         id="path292"
         style="fill:#000000;fill-opacity:1;fill-rule:nonzero;stroke:#000000;stroke-width:0.80000001;stroke-linecap:butt;stroke-linejoin:round;stroke-miterlimit:10;stroke-dasharray:none;stroke-opacity:1"
         d="m 89.377937,316.19989 h -3.5" /><text
         id="text296"
         style="font-variant:normal;font-weight:normal;font-size:26.89912796px;font-family:'Computer Modern';-inkscape-font-specification:CMR17;writing-mode:lr-tb;fill:#000000;fill-opacity:1;fill-rule:nonzero;stroke:none"
         transform="matrix(1,0,0,-1,38.052413,306.85991)"><tspan
           id="tspan294"
           y="0"
           x="0">0</tspan></text>
<text
         id="text300"
         style="font-style:italic;font-variant:normal;font-weight:normal;font-size:26.89912796px;font-family:'Computer Modern';-inkscape-font-specification:CMMI12;writing-mode:lr-tb;fill:#000000;fill-opacity:1;fill-rule:nonzero;stroke:none"
         transform="matrix(1,0,0,-1,50.388842,306.85991)"><tspan
           id="tspan298"
           y="0"
           x="0">.</tspan></text>
<text
         id="text304"
         style="font-variant:normal;font-weight:normal;font-size:26.89912796px;font-family:'Computer Modern';-inkscape-font-specification:CMR17;writing-mode:lr-tb;fill:#000000;fill-opacity:1;fill-rule:nonzero;stroke:none"
         transform="matrix(1,0,0,-1,57.70508,306.85991)"><tspan
           id="tspan302"
           y="0"
           x="0 12.3198">15</tspan></text>
</g><g
       id="g306"><g
         clip-path="url(#clipPath312)"
         id="g308"><path
           id="path314"
           style="fill:none;stroke:#b0b0b0;stroke-width:0.80000001;stroke-linecap:butt;stroke-linejoin:round;stroke-miterlimit:10;stroke-dasharray:2.96, 1.28;stroke-dashoffset:0;stroke-opacity:0.4"
           d="M 89.377937,383.66821 H 780.88347" /></g></g><g
       id="g316"><path
         id="path318"
         style="fill:#000000;fill-opacity:1;fill-rule:nonzero;stroke:#000000;stroke-width:0.80000001;stroke-linecap:butt;stroke-linejoin:round;stroke-miterlimit:10;stroke-dasharray:none;stroke-opacity:1"
         d="m 89.377937,383.66821 h -3.5" /><text
         id="text322"
         style="font-variant:normal;font-weight:normal;font-size:26.89912796px;font-family:'Computer Modern';-inkscape-font-specification:CMR17;writing-mode:lr-tb;fill:#000000;fill-opacity:1;fill-rule:nonzero;stroke:none"
         transform="matrix(1,0,0,-1,38.052413,374.32823)"><tspan
           id="tspan320"
           y="0"
           x="0">0</tspan></text>
<text
         id="text326"
         style="font-style:italic;font-variant:normal;font-weight:normal;font-size:26.89912796px;font-family:'Computer Modern';-inkscape-font-specification:CMMI12;writing-mode:lr-tb;fill:#000000;fill-opacity:1;fill-rule:nonzero;stroke:none"
         transform="matrix(1,0,0,-1,50.388842,374.32823)"><tspan
           id="tspan324"
           y="0"
           x="0">.</tspan></text>
<text
         id="text330"
         style="font-variant:normal;font-weight:normal;font-size:26.89912796px;font-family:'Computer Modern';-inkscape-font-specification:CMR17;writing-mode:lr-tb;fill:#000000;fill-opacity:1;fill-rule:nonzero;stroke:none"
         transform="matrix(1,0,0,-1,57.70508,374.32823)"><tspan
           id="tspan328"
           y="0"
           x="0 12.3198">20</tspan></text>
<text
         id="text334"
         style="font-variant:normal;font-weight:normal;font-size:26.89912796px;font-family:'Computer Modern';-inkscape-font-specification:CMR17;writing-mode:lr-tb;fill:#000000;fill-opacity:1;fill-rule:nonzero;stroke:none"
         transform="matrix(0,1,1,0,27.35013,195.13614)"><tspan
           id="tspan332"
           y="0"
           x="0 13.718555 23.240847 34.161892 45.082939 54.605232 61.303112 75.021667 95.461975 102.15986 111.68214 124.00195 137.7205">Steering[rad]</tspan></text>
</g><g
       id="g336"><g
         clip-path="url(#clipPath342)"
         id="g338"><path
           id="path344"
           style="fill:none;stroke:#1f77b4;stroke-width:2.5;stroke-linecap:square;stroke-linejoin:round;stroke-miterlimit:10;stroke-dasharray:none;stroke-opacity:1"
           d="m 120.81001,246.87993 4.42812,-14.29561 3.97794,-17.42195 4.28069,-23.56205 5.0938,-22.73341 4.64521,-17.65983 4.75213,-5.59083 5.07551,9.15014 4.62004,12.2257 4.9503,19.75285 5.00562,21.64347 5.0776,22.54956 5.47012,16.91518 4.97747,3.96907 5.27406,-11.65093 5.32993,-15.6688 5.27292,-21.44241 5.25075,-15.98538 5.4998,-5.74128 5.17277,2.68096 5.08806,17.02044 4.77173,26.15111 5.26298,41.92413 9.41525,70.76666 4.93336,20.53318 4.33175,7.04204 4.47478,-0.0817 4.09056,-8.80375 4.5371,-7.8339 8.33533,-19.93243 4.05591,-10.20034 3.94909,-0.29445 3.93999,6.89325 4.03819,10.63521 3.6168,-0.72707 3.57772,14.54714 3.74557,13.89183 4.1438,-1.44268 3.31089,6.326 3.50578,-8e-4 4.06632,-11.1696 3.50416,-10.72948 3.89761,-21.84187 3.48636,-22.69911 4.12691,-19.9795 3.94106,-22.14527 3.58943,2.62959 3.84354,14.8218 3.62123,10.46859 3.84421,23.87613 3.89941,22.28509 4.23581,11.36275 4.25821,-3.84612 3.92819,-6.07829 4.10188,-17.18039 4.42255,-20.82065 8.23603,-48.16714 4.31653,-15.92936 4.10793,-7.23125 4.91994,8.64926 4.20891,15.69978 4.56408,13.01199 4.59601,13.69823 4.57298,2.3594 4.54371,4.54267 5.02626,-5.72234 4.20952,-7.84173 5.25394,-16.91832 4.27574,-20.7124 5.09555,-16.73781 5.2239,-13.33856 4.97631,1.41652 4.71373,5.55951 5.0846,6.39876 5.10914,4.73965 5.13305,8.59056 4.95584,10.67043 5.862,6.19318 5.00021,14.60039 5.29462,8.27517 5.43289,11.7221 5.64891,-0.0383 4.90681,-3.80075 5.40493,-11.4595 5.56882,-11.23682 6.13787,-15.1866 5.62102,-3.54704 5.45684,-11.70454 4.59283,6.85678 6.24363,4.25552 5.38485,8.86995 4.95112,9.5097 5.57906,17.60626 4.58846,18.98016 5.37653,21.18847 5.26918,16.18869 4.3636,2.3485 5.07246,4.25694 4.47502,-8.87266 4.43295,-10.46495 5.0741,-18.50099 4.27358,-8.824 4.7174,16.65474 4.35732,2.11025 4.57162,7.58164 4.01706,15.29116 4.44301,22.55336 3.90501,16.71846 4.12079,12.84606 4.31679,6.16871 3.99951,-0.54841 3.81056,-11.37139 4.1563,3.28959 3.62763,-8.08459 4.10817,-7.96305 3.64596,-15.47325 4.25536,-23.72788 3.44954,-15.23328 4.0341,-6.64176 3.43108,8.61561 4.04619,11.48457 3.80419,6.18424 3.61707,13.51622 4.01859,13.08466 3.61119,-8.92398 4.05397,-17.91763 4.12128,-15.3577 3.47867,-18.80006 4.0047,-18.40828 4.68807,-23.64866 3.84592,-16.1931 4.11977,-4.88923 4.36289,-0.0458 3.7774,-1.71295 4.50788,-0.14251 3.83131,-2.82393 v 0" /></g></g><g
       id="g346"><g
         clip-path="url(#clipPath352)"
         id="g348"><path
           id="path354"
           style="fill:none;stroke:#ff7f0e;stroke-width:2.5;stroke-linecap:square;stroke-linejoin:round;stroke-miterlimit:10;stroke-dasharray:none;stroke-opacity:1"
           d="m 120.81001,208.57803 4.40408,-4.603 4.04865,-7.71926 5.03472,-6.73237 4.86876,-6.86405 4.43632,-3.29188 4.21047,-0.82795 5.31863,-0.46988 5.16492,-0.21542 4.9414,-1.11536 3.33559,3.04511 6.47002,2.99882 4.92808,4.94221 4.93616,4.61888 5.85888,7.17849 5.58073,10.73926 5.28652,10.43445 3.8399,11.49369 6.39162,14.89733 5.16624,15.08281 5.36018,12.63707 4.78431,12.45904 9.80318,19.74517 5.23459,4.7339 8.948,14.31173 2.74608,4.13705 9.88612,20.94773 4.22327,7.22454 4.33071,6.57839 3.61819,4.82344 3.96384,1.51903 4.13637,-6.04201 4.26118,-9.49087 3.82677,2.59892 2.90834,-6.54058 4.39088,-13.61581 3.72508,-1.05162 3.89176,-4.10665 3.11065,-4.49858 4.10628,-21.10096 3.84238,-11.42387 3.76492,-6.81713 3.24511,-1.98712 3.89865,-4.54728 3.56828,2.51753 3.84927,13.16078 3.96477,5.75731 3.32209,0.0244 4.37853,17.20089 3.9778,13.21907 4.06594,2.25561 4.0689,-3.1524 3.84367,-11.78446 4.54421,12.40683 4.20269,-35.90753 4.26953,-21.22679 4.24858,-6.54012 4.07861,-18.81914 5.04209,-4.03496 3.702,-6.07136 4.50419,0.48573 4.73222,1.4881 4.85094,-7.26427 4.38442,-2.41962 3.83982,-1.85825 5.48,-4.14081 3.90118,-2.11065 5.41227,-6.27584 5.24763,-3.60076 3.53083,-1.74538 5.46878,1.83931 5.21012,2.05891 5.37476,3.46975 5.07589,2.41215 4.84006,-1.44267 5.18314,5.10382 5.19473,3.14905 5.25531,4.57862 5.57755,4.62517 5.33648,6.64697 5.11012,4.46696 6.29111,8.68662 3.64892,2.38311 5.8017,5.01134 6.40742,3.81965 3.7553,4.67319 7.34815,5.59993 5.49179,7.05516 4.82906,4.98748 4.51871,-0.53214 6.80013,3.58303 2.96011,-4.2381 6.65213,-0.86254 5.74099,-6.59913 5.02939,-4.08183 5.28257,-3.01564 4.05113,-0.37766 5.33557,2.65002 4.74558,1.60512 4.5131,10.83893 4.71523,5.81646 4.4919,18.21949 4.46809,10.58673 4.86231,22.03796 2.89309,10.8692 5.22494,8.23514 4.18905,9.08071 4.59666,2.43741 2.9743,3.57132 4.93891,-7.70296 3.14563,-7.17341 4.18696,-10.64101 4.5851,-16.63834 3.65786,-5.32225 3.84585,-9.08503 3.87812,-10.1028 4.28108,-6.40036 2.78638,8.17922 4.69419,-2.58967 2.96968,9.34842 4.68785,1.47315 3.62412,7.40309 3.20666,8.46748 4.18862,-1.20593 4.26406,-8.29266 4.08853,-10.39323 3.02759,-13.34155 3.75152,-14.18801 5.1029,-18.33133 3.58432,-15.67835 3.61636,-11.2034 4.77871,-11.33465 4.32194,-9.1152 3.59513,-5.37068 4.2493,-5.79855 4.10681,-5.93693 v 0" /></g></g><g
       id="g356"><g
         clip-path="url(#clipPath362)"
         id="g358"><path
           id="path364"
           style="fill:none;stroke:#2ca02c;stroke-width:2.5;stroke-linecap:square;stroke-linejoin:round;stroke-miterlimit:10;stroke-dasharray:none;stroke-opacity:1"
           d="m 120.81001,209.72396 3.96701,-6.72554 4.6977,-8.59408 4.53472,-9.35523 4.59277,-6.93932 9.43583,-6.84538 5.30167,-2.14713 5.14346,-0.53823 4.40567,3.99133 4.70009,4.50289 5.92482,3.58908 4.62198,6.94604 5.25317,7.31547 5.25702,9.14438 5.03897,10.62937 5.56173,14.85903 5.56039,13.05855 4.93395,13.94732 5.46842,11.05652 9.86507,24.72039 4.98481,10.82625 4.88266,11.80739 5.05752,12.82837 4.43567,7.62026 4.54028,3.91255 4.21329,5.83448 4.88657,4.64504 3.83487,4.01212 4.43275,1.8767 3.6985,1.02537 4.6878,1.4458 4.00899,2.09914 7.34237,0.60433 3.81598,0.8216 3.97771,-1.08619 3.5397,-3.0057 3.92373,-3.99937 3.3211,-4.61116 4.11179,-5.40717 3.68909,-6.86634 4.05839,-8.87261 3.47308,-10.50706 3.49023,-11.3742 3.27301,-8.51429 7.49541,-13.56665 3.9546,-4.0798 4.04693,-1.93525 3.66978,-1.30453 3.91393,-0.19012 4.40284,-0.79989 3.82547,-2.80772 4.26086,-1.21973 3.4504,-2.98763 4.55167,-2.61843 4.18714,-2.09171 3.76418,-3.67477 4.72096,-3.71086 4.07305,-3.56369 4.8233,-2.76836 3.94985,1.15895 4.71785,2.4677 4.51176,-0.35835 4.05567,-3.17471 5.10088,-4.42819 4.36955,-2.83884 5.14678,-4.82666 4.42972,-4.4242 4.74793,-4.42947 4.27656,-5.04431 5.13119,-3.42802 4.87589,-1.69734 5.20656,-0.80875 4.99336,0.36334 4.80098,-0.0577 5.06511,-1.07929 5.14849,-0.72572 5.1756,1.03799 5.48573,0.79309 10.56515,2.95851 4.78226,2.79187 5.69551,2.78297 11.16836,6.72408 5.06979,4.34099 5.9979,7.21008 5.31892,11.3407 5.87456,9.86294 4.87423,11.68854 16.48626,26.18151 5.24329,6.11166 5.73586,5.50415 4.2599,2.89692 5.30267,3.16967 4.91452,2.01608 4.58196,1.54167 4.73396,2.09447 8.82615,4.97484 5.73483,0.50491 3.75815,-0.0629 4.6403,1.72305 4.34944,-0.57398 4.27428,-0.0241 4.44879,3.12636 4.18834,4.626 3.90529,4.0153 4.09027,3.60894 3.93892,2.87362 3.91817,3.496 4.19933,3.37658 4.17784,2.6511 3.86807,3.31504 3.65825,1.63541 4.06455,-1.5139 3.65936,-2.75813 3.83522,-3.77532 7.66434,-10.52717 4.21317,-7.49355 3.63606,-8.62277 3.99841,-7.28199 3.15826,-11.65357 4.20487,-13.22496 3.82481,-14.99668 3.4481,-12.75987 4.14043,-9.25258 12.25307,-22.69701 7.75586,-11.87663 4.1815,-3.88984 4.88167,-3.99118 4.05759,-5.00156 v 0" /></g></g><g
       id="g366"><g
         clip-path="url(#clipPath372)"
         id="g368"><path
           id="path374"
           style="fill:none;stroke:#d62728;stroke-width:2.5;stroke-linecap:square;stroke-linejoin:round;stroke-miterlimit:10;stroke-dasharray:none;stroke-opacity:1"
           d="m 120.81001,222.64507 4.4466,-6.16858 4.27543,-7.60656 4.76302,-10.05317 4.42133,-6.25694 4.55365,-5.48711 4.63688,-6.63887 5.08123,-3.67905 4.70959,-4.71024 5.29071,0.10346 4.82876,-0.60694 5.11078,2.69462 10.42139,7.03087 5.36277,9.77342 5.30184,9.14644 5.00985,11.57824 5.51443,9.8678 5.26103,14.01889 5.16424,12.40025 5.11644,12.91783 5.00823,10.74508 5.07901,9.22907 4.73606,11.04263 4.77089,9.02451 4.66156,12.87491 4.28949,7.5192 4.71317,10.82248 4.36659,6.81577 4.30687,7.78651 4.19546,8.02303 4.33223,1.42084 3.8476,1.95336 4.16609,0.76212 3.72321,0.47372 3.85541,-2.10802 3.58587,-2.55142 3.97705,-1.93264 3.7687,-1.36967 3.7004,-5.12991 3.73036,-4.44373 3.71162,-4.83979 3.69249,-9.3784 3.69756,-10.51615 3.67396,-5.29026 3.69063,-2.67585 3.72807,-6.12673 2.89439,-0.20284 3.29619,-5.21815 9.00231,-4.2306 3.89607,-3.20665 3.96865,-3.85991 3.93876,-0.0216 3.52565,-2.51386 4.65862,-5.372 4.29944,-4.37213 4.04389,-6.42985 4.34657,-3.07089 4.00918,-5.64065 4.30289,-3.02015 4.33515,-3.76161 4.40584,-4.02535 4.46521,0.85863 4.48051,0.11122 4.55477,-2.2821 4.81568,-3.27216 4.35946,-4.77066 4.65312,0.30218 4.68413,-5.72985 4.71583,-3.38982 4.75063,-4.78084 4.57797,-2.77432 5.16185,-0.76737 4.9607,0.20069 4.95163,4.08223 5.0531,1.45259 5.10159,1.89961 5.10833,-1.10258 5.1932,-0.20089 5.13894,2.1666 5.32405,-0.63404 5.55586,0.19238 4.94099,-0.74508 5.23984,1.65284 5.71743,0.94 10.76703,5.85264 5.68164,3.81389 11.14375,16.16763 5.5342,6.9419 4.98805,7.12091 5.84554,5.96902 5.64188,7.42525 4.96826,3.72573 5.64371,5.27911 4.33039,3.01579 5.46307,4.29321 4.99115,3.38009 4.49147,3.96132 5.18667,4.80086 4.74716,3.27849 4.91594,4.78966 4.31341,4.77603 4.50004,2.24915 4.43317,5.18648 8.72375,4.74607 4.24576,0.95086 4.23362,4.37599 4.1423,3.51194 4.1334,1.72301 4.07683,2.01454 4.0208,-1.19808 4.05149,-0.20756 3.94313,1.0254 3.9268,-1.75 3.87928,1.34492 3.85199,-2.66551 3.85665,-3.15239 3.86961,-2.89221 7.69684,-7.9616 3.82116,-1.32359 3.50093,-3.18205 4.36343,-6.90064 3.61869,-3.52549 3.79528,-7.84287 7.56491,-20.36447 3.97289,-11.04229 4.04541,-7.22826 3.99313,-5.9019 3.72425,-8.37199 4.19419,-8.87445 8.49358,-15.81664 4.21022,-3.72765 4.27478,-4.24702 4.12279,-2.22653 v 0" /></g></g><g
       id="g376"><path
         id="path378"
         style="fill:none;stroke:#000000;stroke-width:0.80000001;stroke-linecap:square;stroke-linejoin:miter;stroke-miterlimit:10;stroke-dasharray:none;stroke-opacity:1"
         d="M 89.377937,133.43408 V 401.44197" /><path
         id="path380"
         style="fill:none;stroke:#000000;stroke-width:0.80000001;stroke-linecap:square;stroke-linejoin:miter;stroke-miterlimit:10;stroke-dasharray:none;stroke-opacity:1"
         d="M 780.88347,133.43408 V 401.44197" /><path
         id="path382"
         style="fill:none;stroke:#000000;stroke-width:0.80000001;stroke-linecap:square;stroke-linejoin:miter;stroke-miterlimit:10;stroke-dasharray:none;stroke-opacity:1"
         d="M 89.377937,133.43408 H 780.88347" /><path
         id="path384"
         style="fill:none;stroke:#000000;stroke-width:0.80000001;stroke-linecap:square;stroke-linejoin:miter;stroke-miterlimit:10;stroke-dasharray:none;stroke-opacity:1"
         d="M 89.377937,401.44197 H 780.88347" /><path
         id="path386"
         style="fill:none;stroke:#1f77b4;stroke-width:2.5;stroke-linecap:square;stroke-linejoin:round;stroke-miterlimit:10;stroke-dasharray:none;stroke-opacity:1"
         d="m 42.41417,32.682104 h 27 27" /><text
         id="text390"
         style="font-variant:normal;font-weight:normal;font-size:26.89912796px;font-family:'Computer Modern';-inkscape-font-specification:CMR17;writing-mode:lr-tb;fill:#000000;fill-opacity:1;fill-rule:nonzero;stroke:none"
         transform="matrix(1,0,0,-1,118.01417,23.232104)"><tspan
           id="tspan388"
           y="0"
           x="0 17.941719">CL</tspan></text>
<path
         id="path392"
         style="fill:none;stroke:#ff7f0e;stroke-width:2.5;stroke-linecap:square;stroke-linejoin:round;stroke-miterlimit:10;stroke-dasharray:none;stroke-opacity:1"
         d="m 205.46481,32.682104 h 27 27" /><text
         id="text396"
         style="font-variant:normal;font-weight:normal;font-size:26.89912796px;font-family:'Computer Modern';-inkscape-font-specification:CMR17;writing-mode:lr-tb;fill:#000000;fill-opacity:1;fill-rule:nonzero;stroke:none"
         transform="matrix(1,0,0,-1,281.06481,23.232104)"><tspan
           id="tspan394"
           y="0"
           x="0 16.892653">PP</tspan></text>
<path
         id="path398"
         style="fill:none;stroke:#2ca02c;stroke-width:2.5;stroke-linecap:square;stroke-linejoin:round;stroke-miterlimit:10;stroke-dasharray:none;stroke-opacity:1"
         d="m 368.86141,32.682104 h 27 27" /><text
         id="text402"
         style="font-variant:normal;font-weight:normal;font-size:26.89912796px;font-family:'Computer Modern';-inkscape-font-specification:CMR17;writing-mode:lr-tb;fill:#000000;fill-opacity:1;fill-rule:nonzero;stroke:none"
         transform="matrix(1,0,0,-1,444.46141,23.232104)"><tspan
           id="tspan400"
           y="0"
           x="0 17.941719 33.408718 52.749191 75.613449 89.332008 107.9731">CL+MSNN</tspan></text>
<path
         id="path404"
         style="fill:none;stroke:#d62728;stroke-width:2.5;stroke-linecap:square;stroke-linejoin:round;stroke-miterlimit:10;stroke-dasharray:none;stroke-opacity:1"
         d="m 625.18134,32.682104 h 27 27" /><text
         id="text408"
         style="font-variant:normal;font-weight:normal;font-size:26.89912796px;font-family:'Computer Modern';-inkscape-font-specification:CMR17;writing-mode:lr-tb;fill:#000000;fill-opacity:1;fill-rule:nonzero;stroke:none"
         transform="matrix(1,0,0,-1,700.78134,23.232104)"><tspan
           id="tspan406"
           y="0"
           x="0 16.892653 33.785305 53.125778 75.990036 89.708595 108.34969">PP+MSNN</tspan></text>
</g></g></svg>